<svg version="1.1" viewBox="0.0 0.0 600.0 371.0" fill="none" stroke="none" stroke-linecap="square" stroke-miterlimit="10" width="600" height="371" xmlns:xlink="http://www.w3.org/1999/xlink" xmlns="http://www.w3.org/2000/svg"><path fill="#ffffff" d="M0 0L600.0 0L600.0 371.0L0 371.0L0 0Z" fill-rule="nonzero"/><path stroke="#cccccc" stroke-width="1.0" stroke-linecap="butt" d="M101.5 28.5L101.5 277.5" fill-rule="nonzero"/><path stroke="#cccccc" stroke-width="1.0" stroke-linecap="butt" d="M218.5 28.5L218.5 277.5" fill-rule="nonzero"/><path stroke="#cccccc" stroke-width="1.0" stroke-linecap="butt" d="M334.5 28.5L334.5 277.5" fill-rule="nonzero"/><path stroke="#cccccc" stroke-width="1.0" stroke-linecap="butt" d="M450.5 28.5L450.5 277.5" fill-rule="nonzero"/><path stroke="#cccccc" stroke-width="1.0" stroke-linecap="butt" d="M567.5 28.5L567.5 277.5" fill-rule="nonzero"/><path stroke="#333333" stroke-width="1.0" stroke-linecap="butt" d="M101.5 277.5L581.5 277.5" fill-rule="nonzero"/><path stroke="#cccccc" stroke-width="1.0" stroke-linecap="butt" d="M101.5 252.5L581.5 252.5" fill-rule="nonzero"/><path stroke="#cccccc" stroke-width="1.0" stroke-linecap="butt" d="M101.5 227.5L581.5 227.5" fill-rule="nonzero"/><path stroke="#cccccc" stroke-width="1.0" stroke-linecap="butt" d="M101.5 202.5L581.5 202.5" fill-rule="nonzero"/><path stroke="#cccccc" stroke-width="1.0" stroke-linecap="butt" d="M101.5 177.5L581.5 177.5" fill-rule="nonzero"/><path stroke="#cccccc" stroke-width="1.0" stroke-linecap="butt" d="M101.5 152.5L581.5 152.5" fill-rule="nonzero"/><path stroke="#cccccc" stroke-width="1.0" stroke-linecap="butt" d="M101.5 127.5L581.5 127.5" fill-rule="nonzero"/><path stroke="#cccccc" stroke-width="1.0" stroke-linecap="butt" d="M101.5 102.5L581.5 102.5" fill-rule="nonzero"/><path stroke="#cccccc" stroke-width="1.0" stroke-linecap="butt" d="M101.5 77.5L581.5 77.5" fill-rule="nonzero"/><path stroke="#cccccc" stroke-width="1.0" stroke-linecap="butt" d="M101.5 52.5L581.5 52.5" fill-rule="nonzero"/><path stroke="#cccccc" stroke-width="1.0" stroke-linecap="butt" d="M101.5 28.5L581.5 28.5" fill-rule="nonzero"/><clipPath id="id_0"><path d="M101.55 28.05L581.45 28.05L581.45 277.45L101.55 277.45L101.55 28.05Z" clip-rule="nonzero"/></clipPath><path stroke="#4285f4" stroke-width="2.0" stroke-linecap="butt" clip-path="url(#id_0)" d="M101.55 28.05C101.55 28.05 104.65615 28.05 106.20922 28.05C107.7623 28.05 109.31537 28.05 110.86845 28.05C112.421524 28.05 113.974594 27.966867 115.52767 28.05C117.08074 28.133133 118.63382 28.382534 120.18689 28.5488C121.73997 28.715067 123.293045 28.881332 124.846115 29.0476C126.39919 29.213867 127.95226 29.380133 129.50534 29.5464C131.05841 29.712667 132.6115 29.878933 134.16457 30.0452C135.71764 30.211466 137.2707 30.377733 138.82379 30.544C140.37686 30.710266 141.92993 30.876534 143.48302 31.0428C145.03609 31.209066 146.58916 31.375334 148.14223 31.5416C149.69531 31.707867 151.24838 31.874134 152.80145 32.0404C154.35454 32.20667 155.90761 32.372932 157.46068 32.5392C159.01375 32.705467 160.56683 32.871735 162.1199 33.038002C163.67297 33.20427 165.22606 33.370537 166.77913 33.536804C168.3322 33.70307 169.88527 33.869343 171.43835 34.03561C172.99142 34.20188 174.5445 34.36815 176.09758 34.53442C177.65065 34.70069 179.20372 34.866962 180.75679 35.033237C182.30988 35.199512 183.86295 35.365784 185.41602 35.532063C186.9691 35.69834 188.52217 35.86462 190.07524 36.030907C191.62831 36.197193 193.1814 36.36348 194.73447 36.529774C196.28754 36.696068 197.84062 36.862366 199.39369 37.028675C200.94676 37.194984 202.49983 37.361298 204.05292 37.527622C205.60599 37.69395 207.15906 37.860287 208.71214 38.026638C210.26521 38.192993 211.81828 38.359356 213.37135 38.52574C214.92444 38.69213 216.47751 38.858532 218.03058 39.024967C219.58366 39.191402 221.13673 39.357857 222.6898 39.524353C224.24287 39.69085 225.79596 39.85737 227.34903 40.023945C228.9021 40.19052 230.45518 40.35713 232.00826 40.523804C233.56133 40.690483 235.1144 40.8572 236.66748 41.02401C238.22055 41.190815 239.77362 41.357674 241.3267 41.524643C242.87978 41.691612 244.43285 41.85865 245.98592 42.02582C247.539 42.192993 249.09207 42.360252 250.64514 42.527676C252.19823 42.6951 253.7513 42.86263 255.30437 43.030365C256.85745 43.198097 258.41052 43.365963 259.9636 43.534073C261.51666 43.702183 263.06973 43.870453 264.6228 44.03902C266.1759 44.20759 267.72897 44.376358 269.28204 44.545475C270.8351 44.714596 272.38818 44.883957 273.94125 45.053738C275.49432 45.22352 277.04742 45.393593 278.6005 45.564163C280.15356 45.734734 281.70663 45.90565 283.2597 46.07716C284.81277 46.248665 286.36584 46.42059 287.91895 46.5932C289.47202 46.765812 291.0251 46.93892 292.57816 47.112835C294.13123 47.286747 295.6843 47.461243 297.23737 47.63668C298.79047 47.812115 300.34354 47.988235 301.8966 48.165447C303.44968 48.34266 305.00275 48.52067 306.55582 48.699944C308.1089 48.879215 309.662 49.059425 311.21506 49.241085C312.76813 49.422745 314.3212 49.60549 315.87427 49.789906C317.42734 49.974316 318.9804 50.159985 320.5335 50.34756C322.08658 50.53514 323.63965 50.724167 325.19272 50.91537C326.7458 51.106575 328.29886 51.29944 329.85193 51.49479C331.40503 51.690136 332.9581 51.887386 334.51117 52.087452C336.06424 52.28752 337.6173 52.48976 339.17038 52.69519C340.72345 52.90062 342.27655 53.108524 343.82962 53.32003C345.3827 53.531532 346.93576 53.74585 348.48883 53.96422C350.0419 54.18259 351.59497 54.40414 353.14807 54.630253C354.70114 54.856365 356.2542 55.086067 357.80728 55.320885C359.36035 55.555702 360.91342 55.79457 362.4665 56.039158C364.0196 56.283745 365.57266 56.532883 367.12573 56.78841C368.6788 57.043938 370.23187 57.304573 371.78494 57.572323C373.338 57.840076 374.8911 58.113544 376.44418 58.394928C377.99725 58.676315 379.55032 58.96408 381.1034 59.260643C382.65646 59.557205 384.20953 59.860874 385.76263 60.174294C387.3157 60.487713 388.86877 60.80904 390.42184 61.14115C391.9749 61.473263 393.52798 61.814156 395.08105 62.16696C396.63416 62.519768 398.18723 62.88231 399.7403 63.25798C401.29337 63.633656 402.84644 64.020096 404.3995 64.421005C405.95258 64.82191 407.50568 65.23471 409.05875 65.66341C410.61182 66.0921 412.1649 66.53392 413.71796 66.99319C415.27103 67.45245 416.8241 67.92616 418.3772 68.419C419.93027 68.91184 421.48334 69.420555 423.0364 69.95021C424.58948 70.479866 426.14255 71.026955 427.69562 71.59693C429.24872 72.1669 430.8018 72.75598 432.35486 73.37005C433.90793 73.984116 435.461 74.6191 437.01407 75.281334C438.56714 75.94356 440.12024 76.628654 441.6733 77.343414C443.22638 78.058174 444.77945 78.7979 446.33252 79.56989C447.8856 80.34189 449.43866 81.1411 450.99176 81.97537C452.54483 82.80964 454.0979 83.67355 455.65097 84.575516C457.20404 85.47747 458.7571 86.411674 460.31018 87.387115C461.86328 88.36256 463.41635 89.37303 464.96942 90.42816C466.5225 91.48329 468.07556 92.57644 469.62863 93.71789C471.1817 94.85934 472.7348 96.042 474.28787 97.27686C475.84094 98.51173 477.394 99.791214 478.94708 101.12705C480.50015 102.46289 482.05322 103.84701 483.60632 105.29189C485.1594 106.73678 486.71246 108.23384 488.26553 109.79638C489.8186 111.35892 491.37167 112.977776 492.92474 114.66712C494.47784 116.356476 496.0309 118.10657 497.58398 119.93247C499.13705 121.75838 500.69012 123.64974 502.2432 125.62257C503.79626 127.5954 505.34937 129.63869 506.90244 131.76944C508.4555 133.9002 510.00858 136.10675 511.56165 138.40714C513.11475 140.70752 514.6678 143.08934 516.2209 145.57175C517.7739 148.05415 519.327 150.62401 520.8801 153.30159C522.43317 155.97917 523.98627 158.75056 525.5393 161.63725C527.0924 164.52394 528.64545 167.51118 530.19855 170.62172C531.75165 173.73227 533.3047 176.95052 534.8578 180.30052C536.4108 183.65053 537.9639 187.1158 539.51697 190.72179C541.07007 194.32776 542.62317 198.057 544.1762 201.93639C545.7293 205.81578 547.28235 209.82689 548.83545 213.99811C550.3885 218.16933 551.9416 222.4812 553.4947 226.9637C555.0477 231.44618 556.6008 236.07878 558.1539 240.89305C559.707 245.70734 561.26 250.68167 562.8131 255.84937C564.3662 261.01706 565.91925 268.29907 567.47235 271.8992C569.0254 275.4993 570.5785 276.52487 572.13153 277.45C573.68463 278.37512 575.23773 277.45 576.7908 277.45C578.3439 277.45 581.45 277.45 581.45 277.45" fill-rule="nonzero"/><path fill="#000000" fill-opacity="0.0" clip-path="url(#id_0)" d="M104.55 28.05C104.55 29.706854 103.206856 31.05 101.55 31.05C99.89314 31.05 98.55 29.706854 98.55 28.05C98.55 26.393147 99.89314 25.05 101.55 25.05C103.206856 25.05 104.55 26.393147 104.55 28.05Z" fill-rule="nonzero"/><path fill="#000000" fill-opacity="0.0" clip-path="url(#id_0)" d="M109.20922 28.05C109.20922 29.706854 107.86608 31.05 106.20922 31.05C104.55237 31.05 103.20922 29.706854 103.20922 28.05C103.20922 26.393147 104.55237 25.05 106.20922 25.05C107.86608 25.05 109.20922 26.393147 109.20922 28.05Z" fill-rule="nonzero"/><path fill="#000000" fill-opacity="0.0" clip-path="url(#id_0)" d="M113.86845 28.05C113.86845 29.706854 112.5253 31.05 110.86845 31.05C109.21159 31.05 107.86845 29.706854 107.86845 28.05C107.86845 26.393147 109.21159 25.05 110.86845 25.05C112.5253 25.05 113.86845 26.393147 113.86845 28.05Z" fill-rule="nonzero"/><path fill="#000000" fill-opacity="0.0" clip-path="url(#id_0)" d="M118.52767 28.05C118.52767 29.706854 117.184525 31.05 115.52767 31.05C113.87082 31.05 112.52767 29.706854 112.52767 28.05C112.52767 26.393147 113.87082 25.05 115.52767 25.05C117.184525 25.05 118.52767 26.393147 118.52767 28.05Z" fill-rule="nonzero"/><path fill="#000000" fill-opacity="0.0" clip-path="url(#id_0)" d="M123.18689 28.5488C123.18689 30.205654 121.84375 31.5488 120.18689 31.5488C118.53004 31.5488 117.18689 30.205654 117.18689 28.5488C117.18689 26.891945 118.53004 25.5488 120.18689 25.5488C121.84375 25.5488 123.18689 26.891945 123.18689 28.5488Z" fill-rule="nonzero"/><path fill="#000000" fill-opacity="0.0" clip-path="url(#id_0)" d="M127.846115 29.0476C127.846115 30.704454 126.50297 32.0476 124.846115 32.0476C123.18926 32.0476 121.846115 30.704454 121.846115 29.0476C121.846115 27.390745 123.18926 26.0476 124.846115 26.0476C126.50297 26.0476 127.846115 27.390745 127.846115 29.0476Z" fill-rule="nonzero"/><path fill="#000000" fill-opacity="0.0" clip-path="url(#id_0)" d="M132.50534 29.5464C132.50534 31.203255 131.1622 32.5464 129.50534 32.5464C127.84849 32.5464 126.50534 31.203255 126.50534 29.5464C126.50534 27.889545 127.84849 26.5464 129.50534 26.5464C131.1622 26.5464 132.50534 27.889545 132.50534 29.5464Z" fill-rule="nonzero"/><path fill="#000000" fill-opacity="0.0" clip-path="url(#id_0)" d="M137.16457 30.0452C137.16457 31.702055 135.82141 33.0452 134.16457 33.0452C132.5077 33.0452 131.16457 31.702055 131.16457 30.0452C131.16457 28.388346 132.5077 27.0452 134.16457 27.0452C135.82141 27.0452 137.16457 28.388346 137.16457 30.0452Z" fill-rule="nonzero"/><path fill="#000000" fill-opacity="0.0" clip-path="url(#id_0)" d="M141.82379 30.544C141.82379 32.200855 140.48064 33.544 138.82379 33.544C137.16693 33.544 135.82379 32.200855 135.82379 30.544C135.82379 28.887146 137.16693 27.544 138.82379 27.544C140.48064 27.544 141.82379 28.887146 141.82379 30.544Z" fill-rule="nonzero"/><path fill="#000000" fill-opacity="0.0" clip-path="url(#id_0)" d="M146.48302 31.0428C146.48302 32.699654 145.13986 34.0428 143.48302 34.0428C141.82616 34.0428 140.48302 32.699654 140.48302 31.0428C140.48302 29.385946 141.82616 28.0428 143.48302 28.0428C145.13986 28.0428 146.48302 29.385946 146.48302 31.0428Z" fill-rule="nonzero"/><path fill="#000000" fill-opacity="0.0" clip-path="url(#id_0)" d="M151.14223 31.5416C151.14223 33.198456 149.79909 34.5416 148.14223 34.5416C146.48538 34.5416 145.14223 33.198456 145.14223 31.5416C145.14223 29.884747 146.48538 28.5416 148.14223 28.5416C149.79909 28.5416 151.14223 29.884747 151.14223 31.5416Z" fill-rule="nonzero"/><path fill="#000000" fill-opacity="0.0" clip-path="url(#id_0)" d="M155.80145 32.0404C155.80145 33.697254 154.45831 35.0404 152.80145 35.0404C151.1446 35.0404 149.80145 33.697254 149.80145 32.0404C149.80145 30.383547 151.1446 29.0404 152.80145 29.0404C154.45831 29.0404 155.80145 30.383547 155.80145 32.0404Z" fill-rule="nonzero"/><path fill="#000000" fill-opacity="0.0" clip-path="url(#id_0)" d="M160.46068 32.5392C160.46068 34.196056 159.11754 35.5392 157.46068 35.5392C155.80382 35.5392 154.46068 34.196056 154.46068 32.5392C154.46068 30.882347 155.80382 29.539202 157.46068 29.539202C159.11754 29.539202 160.46068 30.882347 160.46068 32.5392Z" fill-rule="nonzero"/><path fill="#000000" fill-opacity="0.0" clip-path="url(#id_0)" d="M165.1199 33.038002C165.1199 34.69486 163.77676 36.038002 162.1199 36.038002C160.46304 36.038002 159.1199 34.69486 159.1199 33.038002C159.1199 31.381147 160.46304 30.038002 162.1199 30.038002C163.77676 30.038002 165.1199 31.381147 165.1199 33.038002Z" fill-rule="nonzero"/><path fill="#000000" fill-opacity="0.0" clip-path="url(#id_0)" d="M169.77913 33.536804C169.77913 35.19366 168.43597 36.536804 166.77913 36.536804C165.12227 36.536804 163.77913 35.19366 163.77913 33.536804C163.77913 31.879951 165.12227 30.536806 166.77913 30.536806C168.43597 30.536806 169.77913 31.879951 169.77913 33.536804Z" fill-rule="nonzero"/><path fill="#000000" fill-opacity="0.0" clip-path="url(#id_0)" d="M174.43835 34.03561C174.43835 35.692467 173.0952 37.03561 171.43835 37.03561C169.7815 37.03561 168.43835 35.692467 168.43835 34.03561C168.43835 32.378757 169.7815 31.03561 171.43835 31.03561C173.0952 31.03561 174.43835 32.378757 174.43835 34.03561Z" fill-rule="nonzero"/><path fill="#000000" fill-opacity="0.0" clip-path="url(#id_0)" d="M179.09758 34.53442C179.09758 36.191273 177.75443 37.53442 176.09758 37.53442C174.44072 37.53442 173.09758 36.191273 173.09758 34.53442C173.09758 32.877567 174.44072 31.53442 176.09758 31.53442C177.75443 31.53442 179.09758 32.877567 179.09758 34.53442Z" fill-rule="nonzero"/><path fill="#000000" fill-opacity="0.0" clip-path="url(#id_0)" d="M183.75679 35.033237C183.75679 36.69009 182.41365 38.033237 180.75679 38.033237C179.09995 38.033237 177.75679 36.69009 177.75679 35.033237C177.75679 33.37638 179.09995 32.033237 180.75679 32.033237C182.41365 32.033237 183.75679 33.37638 183.75679 35.033237Z" fill-rule="nonzero"/><path fill="#000000" fill-opacity="0.0" clip-path="url(#id_0)" d="M188.41602 35.532063C188.41602 37.18892 187.07288 38.532063 185.41602 38.532063C183.75917 38.532063 182.41602 37.18892 182.41602 35.532063C182.41602 33.87521 183.75917 32.532063 185.41602 32.532063C187.07288 32.532063 188.41602 33.87521 188.41602 35.532063Z" fill-rule="nonzero"/><path fill="#000000" fill-opacity="0.0" clip-path="url(#id_0)" d="M193.07524 36.030907C193.07524 37.687763 191.7321 39.030907 190.07524 39.030907C188.4184 39.030907 187.07524 37.687763 187.07524 36.030907C187.07524 34.374054 188.4184 33.030907 190.07524 33.030907C191.7321 33.030907 193.07524 34.374054 193.07524 36.030907Z" fill-rule="nonzero"/><path fill="#000000" fill-opacity="0.0" clip-path="url(#id_0)" d="M197.73447 36.529774C197.73447 38.186626 196.39133 39.529774 194.73447 39.529774C193.0776 39.529774 191.73447 38.186626 191.73447 36.529774C191.73447 34.87292 193.0776 33.529774 194.73447 33.529774C196.39133 33.529774 197.73447 34.87292 197.73447 36.529774Z" fill-rule="nonzero"/><path fill="#000000" fill-opacity="0.0" clip-path="url(#id_0)" d="M202.39369 37.028675C202.39369 38.685528 201.05054 40.028675 199.39369 40.028675C197.73683 40.028675 196.39369 38.685528 196.39369 37.028675C196.39369 35.371822 197.73683 34.028675 199.39369 34.028675C201.05054 34.028675 202.39369 35.371822 202.39369 37.028675Z" fill-rule="nonzero"/><path fill="#000000" fill-opacity="0.0" clip-path="url(#id_0)" d="M207.05292 37.527622C207.05292 39.18448 205.70976 40.527622 204.05292 40.527622C202.39606 40.527622 201.05292 39.18448 201.05292 37.527622C201.05292 35.87077 202.39606 34.527622 204.05292 34.527622C205.70976 34.527622 207.05292 35.87077 207.05292 37.527622Z" fill-rule="nonzero"/><path fill="#000000" fill-opacity="0.0" clip-path="url(#id_0)" d="M211.71214 38.026638C211.71214 39.683495 210.36899 41.026638 208.71214 41.026638C207.05528 41.026638 205.71214 39.683495 205.71214 38.026638C205.71214 36.369785 207.05528 35.026638 208.71214 35.026638C210.36899 35.026638 211.71214 36.369785 211.71214 38.026638Z" fill-rule="nonzero"/><path fill="#000000" fill-opacity="0.0" clip-path="url(#id_0)" d="M216.37135 38.52574C216.37135 40.1826 215.02821 41.52574 213.37135 41.52574C211.71451 41.52574 210.37135 40.1826 210.37135 38.52574C210.37135 36.86889 211.71451 35.52574 213.37135 35.52574C215.02821 35.52574 216.37135 36.86889 216.37135 38.52574Z" fill-rule="nonzero"/><path fill="#000000" fill-opacity="0.0" clip-path="url(#id_0)" d="M221.03058 39.024967C221.03058 40.681824 219.68744 42.024967 218.03058 42.024967C216.37373 42.024967 215.03058 40.681824 215.03058 39.024967C215.03058 37.368114 216.37373 36.024967 218.03058 36.024967C219.68744 36.024967 221.03058 37.368114 221.03058 39.024967Z" fill-rule="nonzero"/><path fill="#000000" fill-opacity="0.0" clip-path="url(#id_0)" d="M225.6898 39.524353C225.6898 41.181206 224.34666 42.524353 222.6898 42.524353C221.03296 42.524353 219.6898 41.181206 219.6898 39.524353C219.6898 37.8675 221.03296 36.524353 222.6898 36.524353C224.34666 36.524353 225.6898 37.8675 225.6898 39.524353Z" fill-rule="nonzero"/><path fill="#000000" fill-opacity="0.0" clip-path="url(#id_0)" d="M230.34903 40.023945C230.34903 41.6808 229.00589 43.023945 227.34903 43.023945C225.69217 43.023945 224.34903 41.6808 224.34903 40.023945C224.34903 38.367092 225.69217 37.023945 227.34903 37.023945C229.00589 37.023945 230.34903 38.367092 230.34903 40.023945Z" fill-rule="nonzero"/><path fill="#000000" fill-opacity="0.0" clip-path="url(#id_0)" d="M235.00826 40.523804C235.00826 42.18066 233.6651 43.523804 232.00826 43.523804C230.3514 43.523804 229.00826 42.18066 229.00826 40.523804C229.00826 38.86695 230.3514 37.523804 232.00826 37.523804C233.6651 37.523804 235.00826 38.86695 235.00826 40.523804Z" fill-rule="nonzero"/><path fill="#000000" fill-opacity="0.0" clip-path="url(#id_0)" d="M239.66748 41.02401C239.66748 42.680862 238.32433 44.02401 236.66748 44.02401C235.01062 44.02401 233.66748 42.680862 233.66748 41.02401C233.66748 39.367153 235.01062 38.02401 236.66748 38.02401C238.32433 38.02401 239.66748 39.367153 239.66748 41.02401Z" fill-rule="nonzero"/><path fill="#000000" fill-opacity="0.0" clip-path="url(#id_0)" d="M244.3267 41.524643C244.3267 43.1815 242.98355 44.524643 241.3267 44.524643C239.66985 44.524643 238.3267 43.1815 238.3267 41.524643C238.3267 39.86779 239.66985 38.524643 241.3267 38.524643C242.98355 38.524643 244.3267 39.86779 244.3267 41.524643Z" fill-rule="nonzero"/><path fill="#000000" fill-opacity="0.0" clip-path="url(#id_0)" d="M248.98592 42.02582C248.98592 43.68268 247.64278 45.02582 245.98592 45.02582C244.32907 45.02582 242.98592 43.68268 242.98592 42.02582C242.98592 40.36897 244.32907 39.02582 245.98592 39.02582C247.64278 39.02582 248.98592 40.36897 248.98592 42.02582Z" fill-rule="nonzero"/><path fill="#000000" fill-opacity="0.0" clip-path="url(#id_0)" d="M253.64514 42.527676C253.64514 44.184532 252.302 45.527676 250.64514 45.527676C248.9883 45.527676 247.64514 44.184532 247.64514 42.527676C247.64514 40.870823 248.9883 39.527676 250.64514 39.527676C252.302 39.527676 253.64514 40.870823 253.64514 42.527676Z" fill-rule="nonzero"/><path fill="#000000" fill-opacity="0.0" clip-path="url(#id_0)" d="M258.30438 43.030365C258.30438 44.687218 256.9612 46.030365 255.30437 46.030365C253.64752 46.030365 252.30437 44.687218 252.30437 43.030365C252.30437 41.37351 253.64752 40.030365 255.30437 40.030365C256.9612 40.030365 258.30438 41.37351 258.30438 43.030365Z" fill-rule="nonzero"/><path fill="#000000" fill-opacity="0.0" clip-path="url(#id_0)" d="M262.9636 43.534073C262.9636 45.190926 261.62045 46.534073 259.9636 46.534073C258.30673 46.534073 256.9636 45.190926 256.9636 43.534073C256.9636 41.877216 258.30673 40.534073 259.9636 40.534073C261.62045 40.534073 262.9636 41.877216 262.9636 43.534073Z" fill-rule="nonzero"/><path fill="#000000" fill-opacity="0.0" clip-path="url(#id_0)" d="M267.6228 44.03902C267.6228 45.695877 266.27966 47.03902 264.6228 47.03902C262.96597 47.03902 261.6228 45.695877 261.6228 44.03902C261.6228 42.382168 262.96597 41.03902 264.6228 41.03902C266.27966 41.03902 267.6228 42.382168 267.6228 44.03902Z" fill-rule="nonzero"/><path fill="#000000" fill-opacity="0.0" clip-path="url(#id_0)" d="M272.28204 44.545475C272.28204 46.20233 270.9389 47.545475 269.28204 47.545475C267.62518 47.545475 266.28204 46.20233 266.28204 44.545475C266.28204 42.888622 267.62518 41.545475 269.28204 41.545475C270.9389 41.545475 272.28204 42.888622 272.28204 44.545475Z" fill-rule="nonzero"/><path fill="#000000" fill-opacity="0.0" clip-path="url(#id_0)" d="M276.94125 45.053738C276.94125 46.71059 275.5981 48.053738 273.94125 48.053738C272.2844 48.053738 270.94125 46.71059 270.94125 45.053738C270.94125 43.396885 272.2844 42.053738 273.94125 42.053738C275.5981 42.053738 276.94125 43.396885 276.94125 45.053738Z" fill-rule="nonzero"/><path fill="#000000" fill-opacity="0.0" clip-path="url(#id_0)" d="M281.6005 45.564163C281.6005 47.221016 280.25735 48.564163 278.6005 48.564163C276.94363 48.564163 275.6005 47.221016 275.6005 45.564163C275.6005 43.907307 276.94363 42.564163 278.6005 42.564163C280.25735 42.564163 281.6005 43.907307 281.6005 45.564163Z" fill-rule="nonzero"/><path fill="#000000" fill-opacity="0.0" clip-path="url(#id_0)" d="M286.2597 46.07716C286.2597 47.734013 284.91656 49.07716 283.2597 49.07716C281.60284 49.07716 280.2597 47.734013 280.2597 46.07716C280.2597 44.420303 281.60284 43.07716 283.2597 43.07716C284.91656 43.07716 286.2597 44.420303 286.2597 46.07716Z" fill-rule="nonzero"/><path fill="#000000" fill-opacity="0.0" clip-path="url(#id_0)" d="M290.91895 46.5932C290.91895 48.250057 289.57578 49.5932 287.91895 49.5932C286.2621 49.5932 284.91895 48.250057 284.91895 46.5932C284.91895 44.936348 286.2621 43.5932 287.91895 43.5932C289.57578 43.5932 290.91895 44.936348 290.91895 46.5932Z" fill-rule="nonzero"/><path fill="#000000" fill-opacity="0.0" clip-path="url(#id_0)" d="M295.57816 47.112835C295.57816 48.769688 294.23502 50.112835 292.57816 50.112835C290.9213 50.112835 289.57816 48.769688 289.57816 47.112835C289.57816 45.45598 290.9213 44.112835 292.57816 44.112835C294.23502 44.112835 295.57816 45.45598 295.57816 47.112835Z" fill-rule="nonzero"/><path fill="#000000" fill-opacity="0.0" clip-path="url(#id_0)" d="M300.23737 47.63668C300.23737 49.293533 298.89423 50.63668 297.23737 50.63668C295.58054 50.63668 294.23737 49.293533 294.23737 47.63668C294.23737 45.979824 295.58054 44.63668 297.23737 44.63668C298.89423 44.63668 300.23737 45.979824 300.23737 47.63668Z" fill-rule="nonzero"/><path fill="#000000" fill-opacity="0.0" clip-path="url(#id_0)" d="M304.8966 48.165447C304.8966 49.8223 303.55347 51.165447 301.8966 51.165447C300.23975 51.165447 298.8966 49.8223 298.8966 48.165447C298.8966 46.50859 300.23975 45.165447 301.8966 45.165447C303.55347 45.165447 304.8966 46.50859 304.8966 48.165447Z" fill-rule="nonzero"/><path fill="#000000" fill-opacity="0.0" clip-path="url(#id_0)" d="M309.55582 48.699944C309.55582 50.3568 308.21268 51.699944 306.55582 51.699944C304.89896 51.699944 303.55582 50.3568 303.55582 48.699944C303.55582 47.04309 304.89896 45.699944 306.55582 45.699944C308.21268 45.699944 309.55582 47.04309 309.55582 48.699944Z" fill-rule="nonzero"/><path fill="#000000" fill-opacity="0.0" clip-path="url(#id_0)" d="M314.21506 49.241085C314.21506 50.897938 312.87192 52.241085 311.21506 52.241085C309.5582 52.241085 308.21506 50.897938 308.21506 49.241085C308.21506 47.584232 309.5582 46.241085 311.21506 46.241085C312.87192 46.241085 314.21506 47.584232 314.21506 49.241085Z" fill-rule="nonzero"/><path fill="#000000" fill-opacity="0.0" clip-path="url(#id_0)" d="M318.87427 49.789906C318.87427 51.44676 317.53113 52.789906 315.87427 52.789906C314.2174 52.789906 312.87427 51.44676 312.87427 49.789906C312.87427 48.13305 314.2174 46.789906 315.87427 46.789906C317.53113 46.789906 318.87427 48.13305 318.87427 49.789906Z" fill-rule="nonzero"/><path fill="#000000" fill-opacity="0.0" clip-path="url(#id_0)" d="M323.5335 50.34756C323.5335 52.004417 322.19034 53.34756 320.5335 53.34756C318.87665 53.34756 317.5335 52.004417 317.5335 50.34756C317.5335 48.69071 318.87665 47.34756 320.5335 47.34756C322.19034 47.34756 323.5335 48.69071 323.5335 50.34756Z" fill-rule="nonzero"/><path fill="#000000" fill-opacity="0.0" clip-path="url(#id_0)" d="M328.19272 50.91537C328.19272 52.572224 326.84958 53.91537 325.19272 53.91537C323.53586 53.91537 322.19272 52.572224 322.19272 50.91537C322.19272 49.258514 323.53586 47.91537 325.19272 47.91537C326.84958 47.91537 328.19272 49.258514 328.19272 50.91537Z" fill-rule="nonzero"/><path fill="#000000" fill-opacity="0.0" clip-path="url(#id_0)" d="M332.85193 51.49479C332.85193 53.15164 331.5088 54.49479 329.85193 54.49479C328.1951 54.49479 326.85193 53.15164 326.85193 51.49479C326.85193 49.837933 328.1951 48.49479 329.85193 48.49479C331.5088 48.49479 332.85193 49.837933 332.85193 51.49479Z" fill-rule="nonzero"/><path fill="#000000" fill-opacity="0.0" clip-path="url(#id_0)" d="M337.51117 52.087452C337.51117 53.74431 336.16803 55.087452 334.51117 55.087452C332.8543 55.087452 331.51117 53.74431 331.51117 52.087452C331.51117 50.4306 332.8543 49.087452 334.51117 49.087452C336.16803 49.087452 337.51117 50.4306 337.51117 52.087452Z" fill-rule="nonzero"/><path fill="#000000" fill-opacity="0.0" clip-path="url(#id_0)" d="M342.17038 52.69519C342.17038 54.352047 340.82724 55.69519 339.17038 55.69519C337.51352 55.69519 336.17038 54.352047 336.17038 52.69519C336.17038 51.038338 337.51352 49.69519 339.17038 49.69519C340.82724 49.69519 342.17038 51.038338 342.17038 52.69519Z" fill-rule="nonzero"/><path fill="#000000" fill-opacity="0.0" clip-path="url(#id_0)" d="M346.82962 53.32003C346.82962 54.976883 345.48648 56.32003 343.82962 56.32003C342.17276 56.32003 340.82962 54.976883 340.82962 53.32003C340.82962 51.663174 342.17276 50.32003 343.82962 50.32003C345.48648 50.32003 346.82962 51.663174 346.82962 53.32003Z" fill-rule="nonzero"/><path fill="#000000" fill-opacity="0.0" clip-path="url(#id_0)" d="M351.48883 53.96422C351.48883 55.621075 350.1457 56.96422 348.48883 56.96422C346.83197 56.96422 345.48883 55.621075 345.48883 53.96422C345.48883 52.307365 346.83197 50.96422 348.48883 50.96422C350.1457 50.96422 351.48883 52.307365 351.48883 53.96422Z" fill-rule="nonzero"/><path fill="#000000" fill-opacity="0.0" clip-path="url(#id_0)" d="M356.14807 54.630253C356.14807 56.287106 354.8049 57.630253 353.14807 57.630253C351.4912 57.630253 350.14807 56.287106 350.14807 54.630253C350.14807 52.9734 351.4912 51.630253 353.14807 51.630253C354.8049 51.630253 356.14807 52.9734 356.14807 54.630253Z" fill-rule="nonzero"/><path fill="#000000" fill-opacity="0.0" clip-path="url(#id_0)" d="M360.80728 55.320885C360.80728 56.97774 359.46414 58.320885 357.80728 58.320885C356.15042 58.320885 354.80728 56.97774 354.80728 55.320885C354.80728 53.664032 356.15042 52.320885 357.80728 52.320885C359.46414 52.320885 360.80728 53.664032 360.80728 55.320885Z" fill-rule="nonzero"/><path fill="#000000" fill-opacity="0.0" clip-path="url(#id_0)" d="M365.4665 56.039158C365.4665 57.69601 364.12335 59.039158 362.4665 59.039158C360.80966 59.039158 359.4665 57.69601 359.4665 56.039158C359.4665 54.3823 360.80966 53.039158 362.4665 53.039158C364.12335 53.039158 365.4665 54.3823 365.4665 56.039158Z" fill-rule="nonzero"/><path fill="#000000" fill-opacity="0.0" clip-path="url(#id_0)" d="M370.12573 56.78841C370.12573 58.445267 368.7826 59.78841 367.12573 59.78841C365.46887 59.78841 364.12573 58.445267 364.12573 56.78841C364.12573 55.131557 365.46887 53.78841 367.12573 53.78841C368.7826 53.78841 370.12573 55.131557 370.12573 56.78841Z" fill-rule="nonzero"/><path fill="#000000" fill-opacity="0.0" clip-path="url(#id_0)" d="M374.78494 57.572323C374.78494 59.22918 373.4418 60.572323 371.78494 60.572323C370.12808 60.572323 368.78494 59.22918 368.78494 57.572323C368.78494 55.91547 370.12808 54.572323 371.78494 54.572323C373.4418 54.572323 374.78494 55.91547 374.78494 57.572323Z" fill-rule="nonzero"/><path fill="#000000" fill-opacity="0.0" clip-path="url(#id_0)" d="M379.44418 58.394928C379.44418 60.051785 378.10104 61.394928 376.44418 61.394928C374.78732 61.394928 373.44418 60.051785 373.44418 58.394928C373.44418 56.738075 374.78732 55.394928 376.44418 55.394928C378.10104 55.394928 379.44418 56.738075 379.44418 58.394928Z" fill-rule="nonzero"/><path fill="#000000" fill-opacity="0.0" clip-path="url(#id_0)" d="M384.1034 59.260643C384.1034 60.917496 382.76025 62.260643 381.1034 62.260643C379.44653 62.260643 378.1034 60.917496 378.1034 59.260643C378.1034 57.60379 379.44653 56.260643 381.1034 56.260643C382.76025 56.260643 384.1034 57.60379 384.1034 59.260643Z" fill-rule="nonzero"/><path fill="#000000" fill-opacity="0.0" clip-path="url(#id_0)" d="M388.76263 60.174294C388.76263 61.831146 387.41946 63.174294 385.76263 63.174294C384.10577 63.174294 382.76263 61.831146 382.76263 60.174294C382.76263 58.51744 384.10577 57.174294 385.76263 57.174294C387.41946 57.174294 388.76263 58.51744 388.76263 60.174294Z" fill-rule="nonzero"/><path fill="#000000" fill-opacity="0.0" clip-path="url(#id_0)" d="M393.42184 61.14115C393.42184 62.798004 392.0787 64.14115 390.42184 64.14115C388.76498 64.14115 387.42184 62.798004 387.42184 61.14115C387.42184 59.4843 388.76498 58.14115 390.42184 58.14115C392.0787 58.14115 393.42184 59.4843 393.42184 61.14115Z" fill-rule="nonzero"/><path fill="#000000" fill-opacity="0.0" clip-path="url(#id_0)" d="M398.08105 62.16696C398.08105 63.82382 396.7379 65.16696 395.08105 65.16696C393.42422 65.16696 392.08105 63.82382 392.08105 62.16696C392.08105 60.51011 393.42422 59.16696 395.08105 59.16696C396.7379 59.16696 398.08105 60.51011 398.08105 62.16696Z" fill-rule="nonzero"/><path fill="#000000" fill-opacity="0.0" clip-path="url(#id_0)" d="M402.7403 63.25798C402.7403 64.91483 401.39716 66.25798 399.7403 66.25798C398.08344 66.25798 396.7403 64.91483 396.7403 63.25798C396.7403 61.601128 398.08344 60.25798 399.7403 60.25798C401.39716 60.25798 402.7403 61.601128 402.7403 63.25798Z" fill-rule="nonzero"/><path fill="#000000" fill-opacity="0.0" clip-path="url(#id_0)" d="M407.3995 64.421005C407.3995 66.07786 406.05637 67.421005 404.3995 67.421005C402.74265 67.421005 401.3995 66.07786 401.3995 64.421005C401.3995 62.76415 402.74265 61.421 404.3995 61.421C406.05637 61.421 407.3995 62.76415 407.3995 64.421005Z" fill-rule="nonzero"/><path fill="#000000" fill-opacity="0.0" clip-path="url(#id_0)" d="M412.05875 65.66341C412.05875 67.32026 410.7156 68.66341 409.05875 68.66341C407.4019 68.66341 406.05875 67.32026 406.05875 65.66341C406.05875 64.00655 407.4019 62.663406 409.05875 62.663406C410.7156 62.663406 412.05875 64.00655 412.05875 65.66341Z" fill-rule="nonzero"/><path fill="#000000" fill-opacity="0.0" clip-path="url(#id_0)" d="M416.71796 66.99319C416.71796 68.65004 415.37482 69.99319 413.71796 69.99319C412.0611 69.99319 410.71796 68.65004 410.71796 66.99319C410.71796 65.336334 412.0611 63.993187 413.71796 63.993187C415.37482 63.993187 416.71796 65.336334 416.71796 66.99319Z" fill-rule="nonzero"/><path fill="#000000" fill-opacity="0.0" clip-path="url(#id_0)" d="M421.3772 68.419C421.3772 70.07586 420.03403 71.419 418.3772 71.419C416.72034 71.419 415.3772 70.07586 415.3772 68.419C415.3772 66.762146 416.72034 65.419 418.3772 65.419C420.03403 65.419 421.3772 66.762146 421.3772 68.419Z" fill-rule="nonzero"/><path fill="#000000" fill-opacity="0.0" clip-path="url(#id_0)" d="M426.0364 69.95021C426.0364 71.60706 424.69327 72.95021 423.0364 72.95021C421.37955 72.95021 420.0364 71.60706 420.0364 69.95021C420.0364 68.29336 421.37955 66.95021 423.0364 66.95021C424.69327 66.95021 426.0364 68.29336 426.0364 69.95021Z" fill-rule="nonzero"/><path fill="#000000" fill-opacity="0.0" clip-path="url(#id_0)" d="M430.69562 71.59693C430.69562 73.253784 429.35248 74.59693 427.69562 74.59693C426.0388 74.59693 424.69562 73.253784 424.69562 71.59693C424.69562 69.94007 426.0388 68.59693 427.69562 68.59693C429.35248 68.59693 430.69562 69.94007 430.69562 71.59693Z" fill-rule="nonzero"/><path fill="#000000" fill-opacity="0.0" clip-path="url(#id_0)" d="M435.35486 73.37005C435.35486 75.02691 434.01172 76.37005 432.35486 76.37005C430.698 76.37005 429.35486 75.02691 429.35486 73.37005C429.35486 71.713196 430.698 70.37005 432.35486 70.37005C434.01172 70.37005 435.35486 71.713196 435.35486 73.37005Z" fill-rule="nonzero"/><path fill="#000000" fill-opacity="0.0" clip-path="url(#id_0)" d="M440.01407 75.281334C440.01407 76.93819 438.67093 78.281334 437.01407 78.281334C435.3572 78.281334 434.01407 76.93819 434.01407 75.281334C434.01407 73.62447 435.3572 72.281334 437.01407 72.281334C438.67093 72.281334 440.01407 73.62447 440.01407 75.281334Z" fill-rule="nonzero"/><path fill="#000000" fill-opacity="0.0" clip-path="url(#id_0)" d="M444.6733 77.343414C444.6733 79.00027 443.33017 80.343414 441.6733 80.343414C440.01645 80.343414 438.6733 79.00027 438.6733 77.343414C438.6733 75.68656 440.01645 74.343414 441.6733 74.343414C443.33017 74.343414 444.6733 75.68656 444.6733 77.343414Z" fill-rule="nonzero"/><path fill="#000000" fill-opacity="0.0" clip-path="url(#id_0)" d="M449.33252 79.56989C449.33252 81.226746 447.98938 82.56989 446.33252 82.56989C444.67566 82.56989 443.33252 81.226746 443.33252 79.56989C443.33252 77.91304 444.67566 76.56989 446.33252 76.56989C447.98938 76.56989 449.33252 77.91304 449.33252 79.56989Z" fill-rule="nonzero"/><path fill="#000000" fill-opacity="0.0" clip-path="url(#id_0)" d="M453.99176 81.97537C453.99176 83.632225 452.6486 84.97537 450.99176 84.97537C449.3349 84.97537 447.99176 83.632225 447.99176 81.97537C447.99176 80.31852 449.3349 78.97537 450.99176 78.97537C452.6486 78.97537 453.99176 80.31852 453.99176 81.97537Z" fill-rule="nonzero"/><path fill="#000000" fill-opacity="0.0" clip-path="url(#id_0)" d="M458.65097 84.575516C458.65097 86.23237 457.30783 87.575516 455.65097 87.575516C453.9941 87.575516 452.65097 86.23237 452.65097 84.575516C452.65097 82.91866 453.9941 81.575516 455.65097 81.575516C457.30783 81.575516 458.65097 82.91866 458.65097 84.575516Z" fill-rule="nonzero"/><path fill="#000000" fill-opacity="0.0" clip-path="url(#id_0)" d="M463.31018 87.387115C463.31018 89.04397 461.96704 90.387115 460.31018 90.387115C458.65335 90.387115 457.31018 89.04397 457.31018 87.387115C457.31018 85.73026 458.65335 84.387115 460.31018 84.387115C461.96704 84.387115 463.31018 85.73026 463.31018 87.387115Z" fill-rule="nonzero"/><path fill="#000000" fill-opacity="0.0" clip-path="url(#id_0)" d="M467.96942 90.42816C467.96942 92.085014 466.62628 93.42816 464.96942 93.42816C463.31256 93.42816 461.96942 92.085014 461.96942 90.42816C461.96942 88.77131 463.31256 87.42816 464.96942 87.42816C466.62628 87.42816 467.96942 88.77131 467.96942 90.42816Z" fill-rule="nonzero"/><path fill="#000000" fill-opacity="0.0" clip-path="url(#id_0)" d="M472.62863 93.71789C472.62863 95.37474 471.2855 96.71789 469.62863 96.71789C467.9718 96.71789 466.62863 95.37474 466.62863 93.71789C466.62863 92.061035 467.9718 90.71789 469.62863 90.71789C471.2855 90.71789 472.62863 92.061035 472.62863 93.71789Z" fill-rule="nonzero"/><path fill="#000000" fill-opacity="0.0" clip-path="url(#id_0)" d="M477.28787 97.27686C477.28787 98.933716 475.94473 100.27686 474.28787 100.27686C472.631 100.27686 471.28787 98.933716 471.28787 97.27686C471.28787 95.62001 472.631 94.27686 474.28787 94.27686C475.94473 94.27686 477.28787 95.62001 477.28787 97.27686Z" fill-rule="nonzero"/><path fill="#000000" fill-opacity="0.0" clip-path="url(#id_0)" d="M481.94708 101.12705C481.94708 102.783905 480.60394 104.12705 478.94708 104.12705C477.29022 104.12705 475.94708 102.783905 475.94708 101.12705C475.94708 99.4702 477.29022 98.12705 478.94708 98.12705C480.60394 98.12705 481.94708 99.4702 481.94708 101.12705Z" fill-rule="nonzero"/><path fill="#000000" fill-opacity="0.0" clip-path="url(#id_0)" d="M486.60632 105.29189C486.60632 106.948746 485.26315 108.29189 483.60632 108.29189C481.94946 108.29189 480.60632 106.948746 480.60632 105.29189C480.60632 103.63504 481.94946 102.29189 483.60632 102.29189C485.26315 102.29189 486.60632 103.63504 486.60632 105.29189Z" fill-rule="nonzero"/><path fill="#000000" fill-opacity="0.0" clip-path="url(#id_0)" d="M491.26553 109.79638C491.26553 111.45323 489.9224 112.79638 488.26553 112.79638C486.60867 112.79638 485.26553 111.45323 485.26553 109.79638C485.26553 108.13952 486.60867 106.79638 488.26553 106.79638C489.9224 106.79638 491.26553 108.13952 491.26553 109.79638Z" fill-rule="nonzero"/><path fill="#000000" fill-opacity="0.0" clip-path="url(#id_0)" d="M495.92474 114.66712C495.92474 116.323975 494.5816 117.66712 492.92474 117.66712C491.2679 117.66712 489.92474 116.323975 489.92474 114.66712C489.92474 113.01027 491.2679 111.66712 492.92474 111.66712C494.5816 111.66712 495.92474 113.01027 495.92474 114.66712Z" fill-rule="nonzero"/><path fill="#000000" fill-opacity="0.0" clip-path="url(#id_0)" d="M500.58398 119.93247C500.58398 121.589325 499.24084 122.93247 497.58398 122.93247C495.92712 122.93247 494.58398 121.589325 494.58398 119.93247C494.58398 118.27562 495.92712 116.93247 497.58398 116.93247C499.24084 116.93247 500.58398 118.27562 500.58398 119.93247Z" fill-rule="nonzero"/><path fill="#000000" fill-opacity="0.0" clip-path="url(#id_0)" d="M505.2432 125.62257C505.2432 127.27942 503.90005 128.62257 502.2432 128.62257C500.58636 128.62257 499.2432 127.27942 499.2432 125.62257C499.2432 123.96571 500.58636 122.62257 502.2432 122.62257C503.90005 122.62257 505.2432 123.96571 505.2432 125.62257Z" fill-rule="nonzero"/><path fill="#000000" fill-opacity="0.0" clip-path="url(#id_0)" d="M509.90244 131.76944C509.90244 133.4263 508.5593 134.76944 506.90244 134.76944C505.24557 134.76944 503.90244 133.4263 503.90244 131.76944C503.90244 130.1126 505.24557 128.76944 506.90244 128.76944C508.5593 128.76944 509.90244 130.1126 509.90244 131.76944Z" fill-rule="nonzero"/><path fill="#000000" fill-opacity="0.0" clip-path="url(#id_0)" d="M514.56165 138.40714C514.56165 140.064 513.2185 141.40714 511.56165 141.40714C509.9048 141.40714 508.56165 140.064 508.56165 138.40714C508.56165 136.75029 509.9048 135.40714 511.56165 135.40714C513.2185 135.40714 514.56165 136.75029 514.56165 138.40714Z" fill-rule="nonzero"/><path fill="#000000" fill-opacity="0.0" clip-path="url(#id_0)" d="M519.2209 145.57175C519.2209 147.2286 517.87775 148.57175 516.2209 148.57175C514.564 148.57175 513.2209 147.2286 513.2209 145.57175C513.2209 143.9149 514.564 142.57175 516.2209 142.57175C517.87775 142.57175 519.2209 143.9149 519.2209 145.57175Z" fill-rule="nonzero"/><path fill="#000000" fill-opacity="0.0" clip-path="url(#id_0)" d="M523.8801 153.30159C523.8801 154.95845 522.5369 156.30159 520.8801 156.30159C519.22327 156.30159 517.8801 154.95845 517.8801 153.30159C517.8801 151.64473 519.22327 150.30159 520.8801 150.30159C522.5369 150.30159 523.8801 151.64473 523.8801 153.30159Z" fill-rule="nonzero"/><path fill="#000000" fill-opacity="0.0" clip-path="url(#id_0)" d="M528.5393 161.63725C528.5393 163.2941 527.19617 164.63725 525.5393 164.63725C523.88245 164.63725 522.5393 163.2941 522.5393 161.63725C522.5393 159.9804 523.88245 158.63725 525.5393 158.63725C527.19617 158.63725 528.5393 159.9804 528.5393 161.63725Z" fill-rule="nonzero"/><path fill="#000000" fill-opacity="0.0" clip-path="url(#id_0)" d="M533.19855 170.62172C533.19855 172.27858 531.8554 173.62172 530.19855 173.62172C528.5417 173.62172 527.19855 172.27858 527.19855 170.62172C527.19855 168.96487 528.5417 167.62172 530.19855 167.62172C531.8554 167.62172 533.19855 168.96487 533.19855 170.62172Z" fill-rule="nonzero"/><path fill="#000000" fill-opacity="0.0" clip-path="url(#id_0)" d="M537.8578 180.30052C537.8578 181.95738 536.51465 183.30052 534.8578 183.30052C533.2009 183.30052 531.8578 181.95738 531.8578 180.30052C531.8578 178.64366 533.2009 177.30052 534.8578 177.30052C536.51465 177.30052 537.8578 178.64366 537.8578 180.30052Z" fill-rule="nonzero"/><path fill="#000000" fill-opacity="0.0" clip-path="url(#id_0)" d="M542.51697 190.72179C542.51697 192.37863 541.1738 193.72179 539.51697 193.72179C537.8601 193.72179 536.51697 192.37863 536.51697 190.72179C536.51697 189.06493 537.8601 187.72179 539.51697 187.72179C541.1738 187.72179 542.51697 189.06493 542.51697 190.72179Z" fill-rule="nonzero"/><path fill="#000000" fill-opacity="0.0" clip-path="url(#id_0)" d="M547.1762 201.93639C547.1762 203.59325 545.83307 204.93639 544.1762 204.93639C542.51935 204.93639 541.1762 203.59325 541.1762 201.93639C541.1762 200.27953 542.51935 198.93639 544.1762 198.93639C545.83307 198.93639 547.1762 200.27953 547.1762 201.93639Z" fill-rule="nonzero"/><path fill="#000000" fill-opacity="0.0" clip-path="url(#id_0)" d="M551.83545 213.99811C551.83545 215.65495 550.4923 216.99811 548.83545 216.99811C547.1786 216.99811 545.83545 215.65495 545.83545 213.99811C545.83545 212.34125 547.1786 210.99811 548.83545 210.99811C550.4923 210.99811 551.83545 212.34125 551.83545 213.99811Z" fill-rule="nonzero"/><path fill="#000000" fill-opacity="0.0" clip-path="url(#id_0)" d="M556.4947 226.9637C556.4947 228.62054 555.1515 229.9637 553.4947 229.9637C551.8378 229.9637 550.4947 228.62054 550.4947 226.9637C550.4947 225.30684 551.8378 223.9637 553.4947 223.9637C555.1515 223.9637 556.4947 225.30684 556.4947 226.9637Z" fill-rule="nonzero"/><path fill="#000000" fill-opacity="0.0" clip-path="url(#id_0)" d="M561.1539 240.89305C561.1539 242.54991 559.8107 243.89305 558.1539 243.89305C556.497 243.89305 555.1539 242.54991 555.1539 240.89305C555.1539 239.2362 556.497 237.89305 558.1539 237.89305C559.8107 237.89305 561.1539 239.2362 561.1539 240.89305Z" fill-rule="nonzero"/><path fill="#000000" fill-opacity="0.0" clip-path="url(#id_0)" d="M565.8131 255.84937C565.8131 257.50623 564.47 258.84937 562.8131 258.84937C561.15625 258.84937 559.8131 257.50623 559.8131 255.84937C559.8131 254.1925 561.15625 252.84937 562.8131 252.84937C564.47 252.84937 565.8131 254.1925 565.8131 255.84937Z" fill-rule="nonzero"/><path fill="#000000" fill-opacity="0.0" clip-path="url(#id_0)" d="M570.47235 271.8992C570.47235 273.55606 569.1292 274.8992 567.47235 274.8992C565.8155 274.8992 564.47235 273.55606 564.47235 271.8992C564.47235 270.24234 565.8155 268.8992 567.47235 268.8992C569.1292 268.8992 570.47235 270.24234 570.47235 271.8992Z" fill-rule="nonzero"/><path fill="#000000" fill-opacity="0.0" clip-path="url(#id_0)" d="M575.13153 277.45C575.13153 279.10684 573.7884 280.45 572.13153 280.45C570.4747 280.45 569.13153 279.10684 569.13153 277.45C569.13153 275.79315 570.4747 274.45 572.13153 274.45C573.7884 274.45 575.13153 275.79315 575.13153 277.45Z" fill-rule="nonzero"/><path fill="#000000" fill-opacity="0.0" clip-path="url(#id_0)" d="M579.7908 277.45C579.7908 279.10684 578.44763 280.45 576.7908 280.45C575.1339 280.45 573.7908 279.10684 573.7908 277.45C573.7908 275.79315 575.1339 274.45 576.7908 274.45C578.44763 274.45 579.7908 275.79315 579.7908 277.45Z" fill-rule="nonzero"/><path fill="#000000" fill-opacity="0.0" clip-path="url(#id_0)" d="M584.45 277.45C584.45 279.10684 583.1069 280.45 581.45 280.45C579.79315 280.45 578.45 279.10684 578.45 277.45C578.45 275.79315 579.79315 274.45 581.45 274.45C583.1069 274.45 584.45 275.79315 584.45 277.45Z" fill-rule="nonzero"/><path fill="#000000" d="M271.3125 348.45L271.3125 335.5594L273.03125 335.5594L273.03125 346.9344L279.375 346.9344L279.375 348.45L271.3125 348.45ZM287.28125 347.29376Q286.40625 348.04376 285.57812 348.35626Q284.76562 348.66876 283.84375 348.66876Q282.29688 348.66876 281.46875 347.91876Q280.65625 347.15314 280.65625 345.98126Q280.65625 345.3094 280.96875 344.7469Q281.28125 344.16876 281.78125 343.825Q282.28125 343.48126 282.92188 343.3094Q283.39062 343.1844 284.32812 343.075Q286.23438 342.84064 287.14062 342.52814Q287.15625 342.2 287.15625 342.10626Q287.15625 341.15314 286.70312 340.7469Q286.09375 340.21564 284.90625 340.21564Q283.78125 340.21564 283.25 340.60626Q282.71875 340.9969 282.46875 341.9969L280.92188 341.77814Q281.14062 340.77814 281.60938 340.16876Q282.09375 339.5594 283.0 339.23126Q283.92188 338.90314 285.14062 338.90314Q286.32812 338.90314 287.07812 339.1844Q287.82812 339.46564 288.17188 339.90314Q288.53125 340.325 288.67188 340.96564Q288.75 341.3719 288.75 342.4344L288.75 344.54376Q288.75 346.7469 288.84375 347.34064Q288.95312 347.91876 289.25 348.45L287.59375 348.45Q287.34375 347.95 287.28125 347.29376ZM287.14062 343.7625Q286.28125 344.1219 284.5625 344.35626Q283.59375 344.4969 283.1875 344.6844Q282.78125 344.85626 282.5625 345.2Q282.34375 345.52814 282.34375 345.95Q282.34375 346.575 282.8125 346.9969Q283.29688 347.41876 284.21875 347.41876Q285.14062 347.41876 285.84375 347.02814Q286.5625 346.6219 286.89062 345.9344Q287.14062 345.3875 287.14062 344.34064L287.14062 343.7625ZM294.64062 347.02814L294.875 348.4344Q294.20312 348.575 293.67188 348.575Q292.8125 348.575 292.32812 348.3094Q291.85938 348.02814 291.67188 347.59064Q291.48438 347.1375 291.48438 345.71564L291.48438 340.34064L290.3125 340.34064L290.3125 339.1219L291.48438 339.1219L291.48438 336.8094L293.04688 335.85626L293.04688 339.1219L294.64062 339.1219L294.64062 340.34064L293.04688 340.34064L293.04688 345.8094Q293.04688 346.48126 293.125 346.6844Q293.21875 346.8719 293.40625 346.98126Q293.59375 347.09064 293.95312 347.09064Q294.20312 347.09064 294.64062 347.02814ZM302.57812 345.45L304.21875 345.65314Q303.82812 347.075 302.78125 347.8719Q301.73438 348.66876 300.10938 348.66876Q298.0625 348.66876 296.85938 347.40314Q295.65625 346.1375 295.65625 343.85626Q295.65625 341.5125 296.85938 340.21564Q298.07812 338.90314 300.01562 338.90314Q301.89062 338.90314 303.07812 340.1844Q304.26562 341.45 304.26562 343.7625Q304.26562 343.90314 304.25 344.1844L297.29688 344.1844Q297.375 345.73126 298.15625 346.54376Q298.95312 347.35626 300.10938 347.35626Q300.98438 347.35626 301.59375 346.90314Q302.21875 346.45 302.57812 345.45ZM297.375 342.8875L302.59375 342.8875Q302.48438 341.71564 302.0 341.1219Q301.23438 340.2 300.03125 340.2Q298.95312 340.2 298.20312 340.9344Q297.46875 341.66876 297.375 342.8875ZM306.1875 348.45L306.1875 339.1219L307.60938 339.1219L307.60938 340.45Q308.64062 338.90314 310.57812 338.90314Q311.42188 338.90314 312.125 339.21564Q312.84375 339.5125 313.1875 340.0125Q313.54688 340.4969 313.6875 341.16876Q313.76562 341.60626 313.76562 342.71564L313.76562 348.45L312.1875 348.45L312.1875 342.77814Q312.1875 341.8094 312.0 341.325Q311.82812 340.84064 311.34375 340.5594Q310.875 340.27814 310.25 340.27814Q309.23438 340.27814 308.5 340.91876Q307.76562 341.5594 307.76562 343.35626L307.76562 348.45L306.1875 348.45ZM322.57812 345.45L324.21875 345.65314Q323.82812 347.075 322.78125 347.8719Q321.73438 348.66876 320.10938 348.66876Q318.0625 348.66876 316.85938 347.40314Q315.65625 346.1375 315.65625 343.85626Q315.65625 341.5125 316.85938 340.21564Q318.07812 338.90314 320.01562 338.90314Q321.89062 338.90314 323.07812 340.1844Q324.26562 341.45 324.26562 343.7625Q324.26562 343.90314 324.25 344.1844L317.29688 344.1844Q317.375 345.73126 318.15625 346.54376Q318.95312 347.35626 320.10938 347.35626Q320.98438 347.35626 321.59375 346.90314Q322.21875 346.45 322.57812 345.45ZM317.375 342.8875L322.59375 342.8875Q322.48438 341.71564 322.0 341.1219Q321.23438 340.2 320.03125 340.2Q318.95312 340.2 318.20312 340.9344Q317.46875 341.66876 317.375 342.8875ZM325.54688 345.66876L327.125 345.41876Q327.25 346.35626 327.84375 346.85626Q328.45312 347.35626 329.53125 347.35626Q330.625 347.35626 331.15625 346.91876Q331.6875 346.46564 331.6875 345.8719Q331.6875 345.34064 331.21875 345.02814Q330.89062 344.825 329.59375 344.4969Q327.85938 344.0594 327.1875 343.7469Q326.51562 343.41876 326.15625 342.85626Q325.8125 342.27814 325.8125 341.59064Q325.8125 340.96564 326.09375 340.4344Q326.39062 339.90314 326.875 339.5594Q327.25 339.27814 327.89062 339.09064Q328.53125 338.90314 329.25 338.90314Q330.35938 338.90314 331.1875 339.23126Q332.01562 339.54376 332.40625 340.09064Q332.8125 340.6219 332.95312 341.52814L331.40625 341.73126Q331.29688 341.0125 330.79688 340.60626Q330.29688 340.2 329.375 340.2Q328.28125 340.2 327.8125 340.5594Q327.34375 340.91876 327.34375 341.40314Q327.34375 341.71564 327.54688 341.96564Q327.73438 342.21564 328.14062 342.3875Q328.39062 342.46564 329.54688 342.79376Q331.21875 343.23126 331.875 343.52814Q332.54688 343.8094 332.92188 344.35626Q333.3125 344.90314 333.3125 345.7Q333.3125 346.4969 332.84375 347.2Q332.39062 347.90314 331.51562 348.29376Q330.64062 348.66876 329.54688 348.66876Q327.71875 348.66876 326.76562 347.91876Q325.8125 347.15314 325.54688 345.66876ZM334.54688 345.66876L336.125 345.41876Q336.25 346.35626 336.84375 346.85626Q337.45312 347.35626 338.53125 347.35626Q339.625 347.35626 340.15625 346.91876Q340.6875 346.46564 340.6875 345.8719Q340.6875 345.34064 340.21875 345.02814Q339.89062 344.825 338.59375 344.4969Q336.85938 344.0594 336.1875 343.7469Q335.51562 343.41876 335.15625 342.85626Q334.8125 342.27814 334.8125 341.59064Q334.8125 340.96564 335.09375 340.4344Q335.39062 339.90314 335.875 339.5594Q336.25 339.27814 336.89062 339.09064Q337.53125 338.90314 338.25 338.90314Q339.35938 338.90314 340.1875 339.23126Q341.01562 339.54376 341.40625 340.09064Q341.8125 340.6219 341.95312 341.52814L340.40625 341.73126Q340.29688 341.0125 339.79688 340.60626Q339.29688 340.2 338.375 340.2Q337.28125 340.2 336.8125 340.5594Q336.34375 340.91876 336.34375 341.40314Q336.34375 341.71564 336.54688 341.96564Q336.73438 342.21564 337.14062 342.3875Q337.39062 342.46564 338.54688 342.79376Q340.21875 343.23126 340.875 343.52814Q341.54688 343.8094 341.92188 344.35626Q342.3125 344.90314 342.3125 345.7Q342.3125 346.4969 341.84375 347.2Q341.39062 347.90314 340.51562 348.29376Q339.64062 348.66876 338.54688 348.66876Q336.71875 348.66876 335.76562 347.91876Q334.8125 347.15314 334.54688 345.66876ZM352.20312 352.23126Q350.90625 350.59064 350.0 348.3719Q349.09375 346.15314 349.09375 343.77814Q349.09375 341.6844 349.76562 339.77814Q350.5625 337.54376 352.20312 335.34064L353.34375 335.34064Q352.28125 337.16876 351.9375 337.95Q351.40625 339.16876 351.09375 340.48126Q350.71875 342.1375 350.71875 343.79376Q350.71875 348.0125 353.34375 352.23126L352.20312 352.23126ZM355.1875 348.45L355.1875 335.5594L356.76562 335.5594L356.76562 340.1844Q357.875 338.90314 359.5625 338.90314Q360.59375 338.90314 361.35938 339.3094Q362.125 339.71564 362.45312 340.45Q362.79688 341.16876 362.79688 342.52814L362.79688 348.45L361.20312 348.45L361.20312 342.52814Q361.20312 341.34064 360.6875 340.8094Q360.17188 340.2625 359.23438 340.2625Q358.53125 340.2625 357.90625 340.6375Q357.29688 340.9969 357.03125 341.6219Q356.76562 342.2469 356.76562 343.34064L356.76562 348.45L355.1875 348.45ZM365.1875 348.45L365.1875 335.5594L366.76562 335.5594L366.76562 340.1844Q367.875 338.90314 369.5625 338.90314Q370.59375 338.90314 371.35938 339.3094Q372.125 339.71564 372.45312 340.45Q372.79688 341.16876 372.79688 342.52814L372.79688 348.45L371.20312 348.45L371.20312 342.52814Q371.20312 341.34064 370.6875 340.8094Q370.17188 340.2625 369.23438 340.2625Q368.53125 340.2625 367.90625 340.6375Q367.29688 340.9969 367.03125 341.6219Q366.76562 342.2469 366.76562 343.34064L366.76562 348.45L365.1875 348.45ZM375.625 340.91876L375.625 339.1219L377.42188 339.1219L377.42188 340.91876L375.625 340.91876ZM375.625 348.45L375.625 346.65314L377.42188 346.65314L377.42188 348.45L375.625 348.45ZM380.1875 348.45L380.1875 339.1219L381.60938 339.1219L381.60938 340.41876Q382.04688 339.7469 382.76562 339.325Q383.5 338.90314 384.4375 338.90314Q385.46875 338.90314 386.125 339.34064Q386.79688 339.7625 387.0625 340.54376Q388.17188 338.90314 389.95312 338.90314Q391.34375 338.90314 392.07812 339.6844Q392.82812 340.45 392.82812 342.04376L392.82812 348.45L391.26562 348.45L391.26562 342.575Q391.26562 341.6219 391.10938 341.2Q390.95312 340.77814 390.54688 340.52814Q390.14062 340.27814 389.59375 340.27814Q388.60938 340.27814 387.95312 340.9344Q387.3125 341.59064 387.3125 343.02814L387.3125 348.45L385.73438 348.45L385.73438 342.3875Q385.73438 341.325 385.34375 340.8094Q384.95312 340.27814 384.07812 340.27814Q383.40625 340.27814 382.84375 340.6375Q382.28125 340.98126 382.01562 341.65314Q381.76562 342.325 381.76562 343.60626L381.76562 348.45L380.1875 348.45ZM394.1875 348.45L394.1875 339.1219L395.60938 339.1219L395.60938 340.41876Q396.04688 339.7469 396.76562 339.325Q397.5 338.90314 398.4375 338.90314Q399.46875 338.90314 400.125 339.34064Q400.79688 339.7625 401.0625 340.54376Q402.17188 338.90314 403.95312 338.90314Q405.34375 338.90314 406.07812 339.6844Q406.82812 340.45 406.82812 342.04376L406.82812 348.45L405.26562 348.45L405.26562 342.575Q405.26562 341.6219 405.10938 341.2Q404.95312 340.77814 404.54688 340.52814Q404.14062 340.27814 403.59375 340.27814Q402.60938 340.27814 401.95312 340.9344Q401.3125 341.59064 401.3125 343.02814L401.3125 348.45L399.73438 348.45L399.73438 342.3875Q399.73438 341.325 399.34375 340.8094Q398.95312 340.27814 398.07812 340.27814Q397.40625 340.27814 396.84375 340.6375Q396.28125 340.98126 396.01562 341.65314Q395.76562 342.325 395.76562 343.60626L395.76562 348.45L394.1875 348.45ZM409.21875 352.23126L408.09375 352.23126Q410.71875 348.0125 410.71875 343.79376Q410.71875 342.1375 410.34375 340.5125Q410.04688 339.2 409.5 337.98126Q409.15625 337.1844 408.09375 335.34064L409.21875 335.34064Q410.875 337.54376 411.67188 339.77814Q412.34375 341.6844 412.34375 343.77814Q412.34375 346.15314 411.4375 348.3719Q410.53125 350.59064 409.21875 352.23126Z" fill-rule="nonzero"/><path fill="#000000" d="M30.503138 217.07812L28.987513 217.07812L28.971888 211.625L33.753136 211.625Q34.753136 212.875 35.26876 214.21875Q35.76876 215.54688 35.76876 216.95312Q35.76876 218.85938 34.95626 220.40625Q34.14376 221.95312 32.61251 222.75Q31.065638 223.54688 29.175013 223.54688Q27.284388 223.54688 25.659388 222.76562Q24.034388 221.96875 23.237513 220.5Q22.440638 219.01562 22.440638 217.09375Q22.440638 215.6875 22.893763 214.5625Q23.346888 213.4375 24.159388 212.79688Q24.971888 212.15625 26.268763 211.8125L26.690638 213.35938Q25.706263 213.64062 25.143763 214.07812Q24.581263 214.5 24.253138 215.3125Q23.909388 216.10938 23.909388 217.07812Q23.909388 218.25 24.268763 219.10938Q24.612513 219.95312 25.190638 220.48438Q25.768763 221.0 26.471888 221.29688Q27.659388 221.78125 29.065638 221.78125Q30.784388 221.78125 31.956263 221.1875Q33.11251 220.59375 33.67501 219.46875Q34.23751 218.32812 34.23751 217.0625Q34.23751 215.95312 33.815636 214.90625Q33.378136 213.84375 32.89376 213.29688L30.503138 213.29688L30.503138 217.07812ZM35.55001 209.32812L26.221888 209.32812L26.221888 207.90625L27.628138 207.90625Q26.643763 207.35938 26.331263 206.90625Q26.003138 206.4375 26.003138 205.89062Q26.003138 205.07812 26.518763 204.26562L27.987513 204.79688Q27.643763 205.39062 27.643763 205.96875Q27.643763 206.48438 27.956263 206.90625Q28.268763 207.3125 28.815638 207.48438Q29.659388 207.75 30.659388 207.75L35.55001 207.75L35.55001 209.32812ZM34.39376 197.21875Q35.14376 198.09375 35.45626 198.92188Q35.76876 199.73438 35.76876 200.65625Q35.76876 202.20312 35.01876 203.03125Q34.253136 203.84375 33.08126 203.84375Q32.409386 203.84375 31.846888 203.53125Q31.268763 203.21875 30.925013 202.71875Q30.581263 202.21875 30.409388 201.57812Q30.284388 201.10938 30.175013 200.17188Q29.940638 198.26562 29.628138 197.35938Q29.300013 197.34375 29.206263 197.34375Q28.253138 197.34375 27.846888 197.79688Q27.315638 198.40625 27.315638 199.59375Q27.315638 200.71875 27.706263 201.25Q28.096888 201.78125 29.096888 202.03125L28.878138 203.57812Q27.878138 203.35938 27.268763 202.89062Q26.659388 202.40625 26.331263 201.5Q26.003138 200.57812 26.003138 199.35938Q26.003138 198.17188 26.284388 197.42188Q26.565638 196.67188 27.003138 196.32812Q27.425013 195.96875 28.065638 195.82812Q28.471888 195.75 29.534388 195.75L31.643763 195.75Q33.846886 195.75 34.440636 195.65625Q35.01876 195.54688 35.55001 195.25L35.55001 196.90625Q35.05001 197.15625 34.39376 197.21875ZM30.862513 197.35938Q31.221888 198.21875 31.456263 199.9375Q31.596888 200.90625 31.784388 201.3125Q31.956263 201.71875 32.30001 201.9375Q32.628136 202.15625 33.05001 202.15625Q33.67501 202.15625 34.096886 201.6875Q34.51876 201.20312 34.51876 200.28125Q34.51876 199.35938 34.128136 198.65625Q33.721886 197.9375 33.034386 197.60938Q32.48751 197.35938 31.440638 197.35938L30.862513 197.35938ZM35.55001 187.25L34.378136 187.25Q35.76876 188.14062 35.76876 189.875Q35.76876 190.98438 35.159386 191.92188Q34.534386 192.85938 33.440636 193.375Q32.33126 193.89062 30.893763 193.89062Q29.487513 193.89062 28.362513 193.42188Q27.221888 192.95312 26.612513 192.03125Q26.003138 191.09375 26.003138 189.9375Q26.003138 189.09375 26.362513 188.4375Q26.721888 187.78125 27.284388 187.35938L22.659388 187.35938L22.659388 185.79688L35.55001 185.79688L35.55001 187.25ZM30.893763 192.26562Q32.690636 192.26562 33.58126 191.51562Q34.45626 190.75 34.45626 189.71875Q34.45626 188.6875 33.61251 187.96875Q32.76876 187.23438 31.018763 187.23438Q29.112513 187.23438 28.221888 187.96875Q27.315638 188.70312 27.315638 189.78125Q27.315638 190.84375 28.175013 191.5625Q29.034388 192.26562 30.893763 192.26562ZM32.55001 176.92188L32.753136 175.28125Q34.17501 175.67188 34.971886 176.71875Q35.76876 177.76562 35.76876 179.39062Q35.76876 181.4375 34.503136 182.64062Q33.23751 183.84375 30.956263 183.84375Q28.612513 183.84375 27.315638 182.64062Q26.003138 181.42188 26.003138 179.48438Q26.003138 177.60938 27.284388 176.42188Q28.550013 175.23438 30.862513 175.23438Q31.003138 175.23438 31.284388 175.25L31.284388 182.20312Q32.83126 182.125 33.64376 181.34375Q34.45626 180.54688 34.45626 179.39062Q34.45626 178.51562 34.003136 177.90625Q33.55001 177.28125 32.55001 176.92188ZM29.987513 182.125L29.987513 176.90625Q28.815638 177.01562 28.221888 177.5Q27.300013 178.26562 27.300013 179.46875Q27.300013 180.54688 28.034388 181.29688Q28.768763 182.03125 29.987513 182.125ZM35.55001 168.3125L26.221888 168.3125L26.221888 166.89062L27.518763 166.89062Q26.846888 166.45312 26.425013 165.73438Q26.003138 165.0 26.003138 164.0625Q26.003138 163.03125 26.440638 162.375Q26.862513 161.70312 27.643763 161.4375Q26.003138 160.32812 26.003138 158.54688Q26.003138 157.15625 26.784388 156.42188Q27.550013 155.67188 29.143763 155.67188L35.55001 155.67188L35.55001 157.23438L29.675013 157.23438Q28.721888 157.23438 28.300013 157.39062Q27.878138 157.54688 27.628138 157.95312Q27.378138 158.35938 27.378138 158.90625Q27.378138 159.89062 28.034388 160.54688Q28.690638 161.1875 30.128138 161.1875L35.55001 161.1875L35.55001 162.76562L29.487513 162.76562Q28.425013 162.76562 27.909388 163.15625Q27.378138 163.54688 27.378138 164.42188Q27.378138 165.09375 27.737513 165.65625Q28.081263 166.21875 28.753138 166.48438Q29.425013 166.73438 30.706263 166.73438L35.55001 166.73438L35.55001 168.3125ZM35.55001 148.20312L34.17501 148.20312Q35.76876 149.28125 35.76876 151.15625Q35.76876 151.98438 35.45626 152.70312Q35.128136 153.42188 34.659386 153.76562Q34.17501 154.10938 33.471886 154.25Q33.003136 154.34375 32.003136 154.34375L26.221888 154.34375L26.221888 152.76562L31.393763 152.76562Q32.628136 152.76562 33.065636 152.67188Q33.690636 152.51562 34.05001 152.03125Q34.39376 151.54688 34.39376 150.84375Q34.39376 150.125 34.034386 149.5Q33.67501 148.875 33.05001 148.625Q32.409386 148.35938 31.221888 148.35938L26.221888 148.35938L26.221888 146.78125L35.55001 146.78125L35.55001 148.20312ZM35.55001 144.34375L22.659388 144.34375L22.659388 142.76562L35.55001 142.76562L35.55001 144.34375ZM34.128136 136.85938L35.534386 136.625Q35.67501 137.29688 35.67501 137.82812Q35.67501 138.6875 35.409386 139.17188Q35.128136 139.64062 34.690636 139.82812Q34.23751 140.01562 32.815636 140.01562L27.440638 140.01562L27.440638 141.1875L26.221888 141.1875L26.221888 140.01562L23.909388 140.01562L22.956263 138.45312L26.221888 138.45312L26.221888 136.85938L27.440638 136.85938L27.440638 138.45312L32.909386 138.45312Q33.58126 138.45312 33.784386 138.375Q33.971886 138.28125 34.08126 138.09375Q34.190636 137.90625 34.190636 137.54688Q34.190636 137.29688 34.128136 136.85938ZM24.487513 135.29688L22.659388 135.29688L22.659388 133.71875L24.487513 133.71875L24.487513 135.29688ZM35.55001 135.29688L26.221888 135.29688L26.221888 133.71875L35.55001 133.71875L35.55001 135.29688ZM39.128136 131.3125L26.221888 131.3125L26.221888 129.875L27.425013 129.875Q26.721888 129.35938 26.362513 128.71875Q26.003138 128.07812 26.003138 127.171875Q26.003138 125.96875 26.628138 125.0625Q27.237513 124.140625 28.362513 123.671875Q29.471888 123.203125 30.815638 123.203125Q32.23751 123.203125 33.39376 123.71875Q34.534386 124.234375 35.159386 125.21875Q35.76876 126.203125 35.76876 127.28125Q35.76876 128.0625 35.440636 128.70312Q35.096886 129.32812 34.58126 129.73438L39.128136 129.73438L39.128136 131.3125ZM30.940638 129.875Q32.73751 129.875 33.596886 129.15625Q34.45626 128.42188 34.45626 127.390625Q34.45626 126.328125 33.565636 125.578125Q32.67501 124.828125 30.800013 124.828125Q29.018763 124.828125 28.128138 125.5625Q27.237513 126.296875 27.237513 127.3125Q27.237513 128.32812 28.190638 129.10938Q29.128138 129.875 30.940638 129.875ZM35.55001 121.34375L22.659388 121.34375L22.659388 119.765625L35.55001 119.765625L35.55001 121.34375ZM24.487513 117.296875L22.659388 117.296875L22.659388 115.71875L24.487513 115.71875L24.487513 117.296875ZM35.55001 117.296875L26.221888 117.296875L26.221888 115.71875L35.55001 115.71875L35.55001 117.296875ZM32.55001 106.921875L32.753136 105.28125Q34.17501 105.671875 34.971886 106.71875Q35.76876 107.765625 35.76876 109.390625Q35.76876 111.4375 34.503136 112.640625Q33.23751 113.84375 30.956263 113.84375Q28.612513 113.84375 27.315638 112.640625Q26.003138 111.421875 26.003138 109.484375Q26.003138 107.609375 27.284388 106.421875Q28.550013 105.234375 30.862513 105.234375Q31.003138 105.234375 31.284388 105.25L31.284388 112.203125Q32.83126 112.125 33.64376 111.34375Q34.45626 110.546875 34.45626 109.390625Q34.45626 108.515625 34.003136 107.90625Q33.55001 107.28125 32.55001 106.921875ZM29.987513 112.125L29.987513 106.90625Q28.815638 107.015625 28.221888 107.5Q27.300013 108.265625 27.300013 109.46875Q27.300013 110.546875 28.034388 111.296875Q28.768763 112.03125 29.987513 112.125ZM35.55001 103.328125L26.221888 103.328125L26.221888 101.90625L27.628138 101.90625Q26.643763 101.359375 26.331263 100.90625Q26.003138 100.4375 26.003138 99.890625Q26.003138 99.078125 26.518763 98.265625L27.987513 98.796875Q27.643763 99.390625 27.643763 99.96875Q27.643763 100.484375 27.956263 100.90625Q28.268763 101.3125 28.815638 101.484375Q29.659388 101.75 30.659388 101.75L35.55001 101.75L35.55001 103.328125Z" fill-rule="nonzero"/><path fill="#000000" d="M72.22188 277.29376Q72.22188 275.2625 72.62813 274.02814Q73.05 272.79376 73.87813 272.1219Q74.70625 271.45 75.95625 271.45Q76.87813 271.45 77.56563 271.825Q78.26875 272.1844 78.72188 272.8875Q79.175 273.59064 79.425 274.59064Q79.69063 275.59064 79.69063 277.29376Q79.69063 279.3094 79.26875 280.5594Q78.8625 281.79376 78.03438 282.48126Q77.20625 283.15314 75.95625 283.15314Q74.3 283.15314 73.34688 281.95Q72.22188 280.52814 72.22188 277.29376ZM73.65938 277.29376Q73.65938 280.1219 74.31563 281.0594Q74.9875 281.98126 75.95625 281.98126Q76.925 281.98126 77.58125 281.04376Q78.2375 280.10626 78.2375 277.29376Q78.2375 274.46564 77.58125 273.54376Q76.925 272.60626 75.94063 272.60626Q74.97188 272.60626 74.39375 273.4344Q73.65938 274.48126 73.65938 277.29376ZM82.00313 282.95L82.00313 281.34064L83.6125 281.34064L83.6125 282.95L82.00313 282.95ZM85.22188 277.29376Q85.22188 275.2625 85.62813 274.02814Q86.05 272.79376 86.87813 272.1219Q87.70625 271.45 88.95625 271.45Q89.87813 271.45 90.56563 271.825Q91.26875 272.1844 91.72188 272.8875Q92.175 273.59064 92.425 274.59064Q92.69063 275.59064 92.69063 277.29376Q92.69063 279.3094 92.26875 280.5594Q91.8625 281.79376 91.03438 282.48126Q90.20625 283.15314 88.95625 283.15314Q87.3 283.15314 86.34688 281.95Q85.22188 280.52814 85.22188 277.29376ZM86.65938 277.29376Q86.65938 280.1219 87.31563 281.0594Q87.9875 281.98126 88.95625 281.98126Q89.925 281.98126 90.58125 281.04376Q91.2375 280.10626 91.2375 277.29376Q91.2375 274.46564 90.58125 273.54376Q89.925 272.60626 88.94063 272.60626Q87.97188 272.60626 87.39375 273.4344Q86.65938 274.48126 86.65938 277.29376Z" fill-rule="nonzero"/><path fill="#000000" d="M72.22188 252.35376Q72.22188 250.32251 72.62813 249.08813Q73.05 247.85376 73.87813 247.18188Q74.70625 246.51001 75.95625 246.51001Q76.87813 246.51001 77.56563 246.88501Q78.26875 247.24438 78.72188 247.94751Q79.175 248.65063 79.425 249.65063Q79.69063 250.65063 79.69063 252.35376Q79.69063 254.36938 79.26875 255.61938Q78.8625 256.85376 78.03438 257.54126Q77.20625 258.21313 75.95625 258.21313Q74.3 258.21313 73.34688 257.01Q72.22188 255.58813 72.22188 252.35376ZM73.65938 252.35376Q73.65938 255.18188 74.31563 256.1194Q74.9875 257.04126 75.95625 257.04126Q76.925 257.04126 77.58125 256.10376Q78.2375 255.16626 78.2375 252.35376Q78.2375 249.52563 77.58125 248.60376Q76.925 247.66626 75.94063 247.66626Q74.97188 247.66626 74.39375 248.49438Q73.65938 249.54126 73.65938 252.35376ZM82.00313 258.01L82.00313 256.40063L83.6125 256.40063L83.6125 258.01L82.00313 258.01ZM90.51875 258.01L89.1125 258.01L89.1125 249.04126Q88.59688 249.52563 87.76875 250.01001Q86.95625 250.49438 86.3 250.74438L86.3 249.38501Q87.47188 248.82251 88.34688 248.04126Q89.2375 247.24438 89.6125 246.51001L90.51875 246.51001L90.51875 258.01Z" fill-rule="nonzero"/><path fill="#000000" d="M72.22188 227.41376Q72.22188 225.3825 72.62813 224.14813Q73.05 222.91376 73.87813 222.24188Q74.70625 221.57 75.95625 221.57Q76.87813 221.57 77.56563 221.945Q78.26875 222.30438 78.72188 223.0075Q79.175 223.71063 79.425 224.71063Q79.69063 225.71063 79.69063 227.41376Q79.69063 229.42938 79.26875 230.67938Q78.8625 231.91376 78.03438 232.60126Q77.20625 233.27313 75.95625 233.27313Q74.3 233.27313 73.34688 232.07Q72.22188 230.64813 72.22188 227.41376ZM73.65938 227.41376Q73.65938 230.24188 74.31563 231.17938Q74.9875 232.10126 75.95625 232.10126Q76.925 232.10126 77.58125 231.16376Q78.2375 230.22626 78.2375 227.41376Q78.2375 224.58563 77.58125 223.66376Q76.925 222.72626 75.94063 222.72626Q74.97188 222.72626 74.39375 223.55438Q73.65938 224.60126 73.65938 227.41376ZM82.00313 233.07L82.00313 231.46063L83.6125 231.46063L83.6125 233.07L82.00313 233.07ZM92.6125 231.71063L92.6125 233.07L85.03438 233.07Q85.01875 232.55438 85.20625 232.08563Q85.4875 231.32 86.12813 230.57Q86.76875 229.82 87.97188 228.83563Q89.83125 227.30438 90.4875 226.41376Q91.14375 225.5075 91.14375 224.71063Q91.14375 223.8825 90.55 223.30438Q89.95625 222.72626 88.9875 222.72626Q87.97188 222.72626 87.3625 223.33563Q86.75313 223.945 86.75313 225.02313L85.3 224.8825Q85.45625 223.2575 86.425 222.41376Q87.39375 221.57 89.01875 221.57Q90.675 221.57 91.62813 222.49188Q92.59688 223.39813 92.59688 224.74188Q92.59688 225.42938 92.31563 226.10126Q92.03438 226.7575 91.37813 227.49188Q90.72188 228.22626 89.20625 229.5075Q87.94063 230.57 87.58125 230.96063Q87.22188 231.33563 86.9875 231.71063L92.6125 231.71063Z" fill-rule="nonzero"/><path fill="#000000" d="M72.22188 202.47375Q72.22188 200.4425 72.62813 199.20813Q73.05 197.97375 73.87813 197.30188Q74.70625 196.63 75.95625 196.63Q76.87813 196.63 77.56563 197.005Q78.26875 197.36438 78.72188 198.0675Q79.175 198.77063 79.425 199.77063Q79.69063 200.77063 79.69063 202.47375Q79.69063 204.48938 79.26875 205.73938Q78.8625 206.97375 78.03438 207.66125Q77.20625 208.33313 75.95625 208.33313Q74.3 208.33313 73.34688 207.13Q72.22188 205.70813 72.22188 202.47375ZM73.65938 202.47375Q73.65938 205.30188 74.31563 206.23938Q74.9875 207.16125 75.95625 207.16125Q76.925 207.16125 77.58125 206.22375Q78.2375 205.28625 78.2375 202.47375Q78.2375 199.64563 77.58125 198.72375Q76.925 197.78625 75.94063 197.78625Q74.97188 197.78625 74.39375 198.61438Q73.65938 199.66125 73.65938 202.47375ZM82.00313 208.13L82.00313 206.52063L83.6125 206.52063L83.6125 208.13L82.00313 208.13ZM85.22188 205.09875L86.62813 204.91125Q86.87813 206.11438 87.45625 206.64563Q88.03438 207.16125 88.87813 207.16125Q89.8625 207.16125 90.55 206.47375Q91.2375 205.78625 91.2375 204.77063Q91.2375 203.80188 90.59688 203.17688Q89.97188 202.55188 88.9875 202.55188Q88.59688 202.55188 88.00313 202.70813L88.15938 201.47375Q88.3 201.48938 88.37813 201.48938Q89.28438 201.48938 90.00313 201.02063Q90.72188 200.55188 90.72188 199.5675Q90.72188 198.80188 90.19063 198.30188Q89.675 197.78625 88.84688 197.78625Q88.01875 197.78625 87.47188 198.30188Q86.925 198.8175 86.76875 199.84875L85.3625 199.59875Q85.62813 198.17688 86.53438 197.41125Q87.45625 196.63 88.81563 196.63Q89.75313 196.63 90.53438 197.03625Q91.33125 197.42688 91.7375 198.13Q92.15938 198.8175 92.15938 199.59875Q92.15938 200.34875 91.75313 200.95813Q91.3625 201.5675 90.58125 201.92688Q91.59688 202.16125 92.15938 202.89563Q92.72188 203.63 92.72188 204.73938Q92.72188 206.23938 91.62813 207.28625Q90.53438 208.33313 88.8625 208.33313Q87.3625 208.33313 86.3625 207.4425Q85.3625 206.53625 85.22188 205.09875Z" fill-rule="nonzero"/><path fill="#000000" d="M72.22188 177.53375Q72.22188 175.5025 72.62813 174.26813Q73.05 173.03375 73.87813 172.36188Q74.70625 171.69 75.95625 171.69Q76.87813 171.69 77.56563 172.065Q78.26875 172.42438 78.72188 173.1275Q79.175 173.83063 79.425 174.83063Q79.69063 175.83063 79.69063 177.53375Q79.69063 179.54938 79.26875 180.79938Q78.8625 182.03375 78.03438 182.72125Q77.20625 183.39313 75.95625 183.39313Q74.3 183.39313 73.34688 182.19Q72.22188 180.76813 72.22188 177.53375ZM73.65938 177.53375Q73.65938 180.36188 74.31563 181.29938Q74.9875 182.22125 75.95625 182.22125Q76.925 182.22125 77.58125 181.28375Q78.2375 180.34625 78.2375 177.53375Q78.2375 174.70563 77.58125 173.78375Q76.925 172.84625 75.94063 172.84625Q74.97188 172.84625 74.39375 173.67438Q73.65938 174.72125 73.65938 177.53375ZM82.00313 183.19L82.00313 181.58063L83.6125 181.58063L83.6125 183.19L82.00313 183.19ZM89.72188 183.19L89.72188 180.44L84.75313 180.44L84.75313 179.15875L89.9875 171.73688L91.12813 171.73688L91.12813 179.15875L92.675 179.15875L92.675 180.44L91.12813 180.44L91.12813 183.19L89.72188 183.19ZM89.72188 179.15875L89.72188 173.98688L86.14375 179.15875L89.72188 179.15875Z" fill-rule="nonzero"/><path fill="#000000" d="M72.22188 152.59375Q72.22188 150.5625 72.62813 149.32812Q73.05 148.09375 73.87813 147.42188Q74.70625 146.75 75.95625 146.75Q76.87813 146.75 77.56563 147.125Q78.26875 147.48438 78.72188 148.1875Q79.175 148.89062 79.425 149.89062Q79.69063 150.89062 79.69063 152.59375Q79.69063 154.60938 79.26875 155.85938Q78.8625 157.09375 78.03438 157.78125Q77.20625 158.45312 75.95625 158.45312Q74.3 158.45312 73.34688 157.25Q72.22188 155.82812 72.22188 152.59375ZM73.65938 152.59375Q73.65938 155.42188 74.31563 156.35938Q74.9875 157.28125 75.95625 157.28125Q76.925 157.28125 77.58125 156.34375Q78.2375 155.40625 78.2375 152.59375Q78.2375 149.76562 77.58125 148.84375Q76.925 147.90625 75.94063 147.90625Q74.97188 147.90625 74.39375 148.73438Q73.65938 149.78125 73.65938 152.59375ZM82.00313 158.25L82.00313 156.64062L83.6125 156.64062L83.6125 158.25L82.00313 158.25ZM85.22188 155.25L86.69063 155.125Q86.8625 156.20312 87.45625 156.75Q88.05 157.28125 88.89375 157.28125Q89.90938 157.28125 90.6125 156.51562Q91.31563 155.75 91.31563 154.48438Q91.31563 153.28125 90.64375 152.59375Q89.97188 151.89062 88.87813 151.89062Q88.19063 151.89062 87.64375 152.20312Q87.09688 152.51562 86.78438 153.0L85.47188 152.82812L86.58125 146.95312L92.26875 146.95312L92.26875 148.29688L87.70625 148.29688L87.08125 151.375Q88.1125 150.65625 89.25313 150.65625Q90.75313 150.65625 91.78438 151.70312Q92.81563 152.73438 92.81563 154.35938Q92.81563 155.92188 91.90938 157.04688Q90.8 158.45312 88.89375 158.45312Q87.33125 158.45312 86.34688 157.57812Q85.3625 156.6875 85.22188 155.25Z" fill-rule="nonzero"/><path fill="#000000" d="M72.22188 127.65375Q72.22188 125.6225 72.62813 124.38812Q73.05 123.15375 73.87813 122.48187Q74.70625 121.81 75.95625 121.81Q76.87813 121.81 77.56563 122.185Q78.26875 122.54437 78.72188 123.2475Q79.175 123.95062 79.425 124.95062Q79.69063 125.95062 79.69063 127.65375Q79.69063 129.66937 79.26875 130.91937Q78.8625 132.15375 78.03438 132.84125Q77.20625 133.51312 75.95625 133.51312Q74.3 133.51312 73.34688 132.31Q72.22188 130.88812 72.22188 127.65375ZM73.65938 127.65375Q73.65938 130.48187 74.31563 131.41937Q74.9875 132.34125 75.95625 132.34125Q76.925 132.34125 77.58125 131.40375Q78.2375 130.46625 78.2375 127.65375Q78.2375 124.82562 77.58125 123.90375Q76.925 122.96625 75.94063 122.96625Q74.97188 122.96625 74.39375 123.79437Q73.65938 124.84125 73.65938 127.65375ZM82.00313 133.31L82.00313 131.70062L83.6125 131.70062L83.6125 133.31L82.00313 133.31ZM92.51875 124.65375L91.1125 124.76312Q90.925 123.935 90.58125 123.56Q90.01875 122.96625 89.175 122.96625Q88.50313 122.96625 88.00313 123.34125Q87.33125 123.82562 86.94063 124.76312Q86.56563 125.685 86.55 127.40375Q87.06563 126.6225 87.8 126.2475Q88.53438 125.8725 89.33125 125.8725Q90.7375 125.8725 91.72188 126.91937Q92.72188 127.95062 92.72188 129.59125Q92.72188 130.66937 92.25313 131.59125Q91.78438 132.51312 90.97188 133.01312Q90.15938 133.51312 89.12813 133.51312Q87.37813 133.51312 86.26875 132.21625Q85.15938 130.91937 85.15938 127.95062Q85.15938 124.6225 86.37813 123.1225Q87.45625 121.81 89.26875 121.81Q90.6125 121.81 91.47188 122.57562Q92.34688 123.32562 92.51875 124.65375ZM86.76875 129.59125Q86.76875 130.32562 87.08125 130.9975Q87.39375 131.65375 87.94063 131.9975Q88.50313 132.34125 89.1125 132.34125Q90.00313 132.34125 90.64375 131.6225Q91.28438 130.90375 91.28438 129.66937Q91.28438 128.48187 90.64375 127.81Q90.01875 127.1225 89.05 127.1225Q88.09688 127.1225 87.425 127.81Q86.76875 128.48187 86.76875 129.59125Z" fill-rule="nonzero"/><path fill="#000000" d="M72.22188 102.71375Q72.22188 100.6825 72.62813 99.44813Q73.05 98.21375 73.87813 97.54188Q74.70625 96.87 75.95625 96.87Q76.87813 96.87 77.56563 97.245Q78.26875 97.60438 78.72188 98.3075Q79.175 99.01063 79.425 100.01063Q79.69063 101.01063 79.69063 102.71375Q79.69063 104.72938 79.26875 105.97938Q78.8625 107.21375 78.03438 107.90125Q77.20625 108.57313 75.95625 108.57313Q74.3 108.57313 73.34688 107.37Q72.22188 105.94813 72.22188 102.71375ZM73.65938 102.71375Q73.65938 105.54188 74.31563 106.47938Q74.9875 107.40125 75.95625 107.40125Q76.925 107.40125 77.58125 106.46375Q78.2375 105.52625 78.2375 102.71375Q78.2375 99.88563 77.58125 98.96375Q76.925 98.02625 75.94063 98.02625Q74.97188 98.02625 74.39375 98.85438Q73.65938 99.90125 73.65938 102.71375ZM82.00313 108.37L82.00313 106.76063L83.6125 106.76063L83.6125 108.37L82.00313 108.37ZM85.31563 98.41688L85.31563 97.0575L92.72188 97.0575L92.72188 98.15125Q91.62813 99.32313 90.55 101.26063Q89.4875 103.1825 88.89375 105.21375Q88.47188 106.65125 88.3625 108.37L86.90938 108.37Q86.94063 107.01063 87.44063 105.10438Q87.95625 103.1825 88.89375 101.41688Q89.84688 99.63563 90.925 98.41688L85.31563 98.41688Z" fill-rule="nonzero"/><path fill="#000000" d="M72.22188 77.77375Q72.22188 75.7425 72.62813 74.508125Q73.05 73.27375 73.87813 72.601875Q74.70625 71.93 75.95625 71.93Q76.87813 71.93 77.56563 72.305Q78.26875 72.664375 78.72188 73.3675Q79.175 74.070625 79.425 75.070625Q79.69063 76.070625 79.69063 77.77375Q79.69063 79.789375 79.26875 81.039375Q78.8625 82.27375 78.03438 82.96125Q77.20625 83.633125 75.95625 83.633125Q74.3 83.633125 73.34688 82.43Q72.22188 81.008125 72.22188 77.77375ZM73.65938 77.77375Q73.65938 80.601875 74.31563 81.539375Q74.9875 82.46125 75.95625 82.46125Q76.925 82.46125 77.58125 81.52375Q78.2375 80.58625 78.2375 77.77375Q78.2375 74.945625 77.58125 74.02375Q76.925 73.08625 75.94063 73.08625Q74.97188 73.08625 74.39375 73.914375Q73.65938 74.96125 73.65938 77.77375ZM82.00313 83.43L82.00313 81.820625L83.6125 81.820625L83.6125 83.43L82.00313 83.43ZM87.37813 77.21125Q86.50313 76.89875 86.08125 76.305Q85.65938 75.71125 85.65938 74.883125Q85.65938 73.633125 86.55 72.789375Q87.45625 71.93 88.95625 71.93Q90.45625 71.93 91.3625 72.805Q92.28438 73.664375 92.28438 74.914375Q92.28438 75.71125 91.8625 76.305Q91.44063 76.89875 90.59688 77.21125Q91.64375 77.555 92.19063 78.320625Q92.75313 79.08625 92.75313 80.14875Q92.75313 81.6175 91.70625 82.633125Q90.675 83.633125 88.97188 83.633125Q87.28438 83.633125 86.2375 82.633125Q85.20625 81.6175 85.20625 80.1175Q85.20625 78.9925 85.76875 78.2425Q86.33125 77.4925 87.37813 77.21125ZM87.09688 74.83625Q87.09688 75.64875 87.6125 76.164375Q88.14375 76.68 88.9875 76.68Q89.8 76.68 90.31563 76.164375Q90.83125 75.64875 90.83125 74.914375Q90.83125 74.133125 90.3 73.6175Q89.76875 73.08625 88.97188 73.08625Q88.15938 73.08625 87.62813 73.601875Q87.09688 74.1175 87.09688 74.83625ZM86.64375 80.1175Q86.64375 80.726875 86.925 81.289375Q87.22188 81.851875 87.78438 82.164375Q88.34688 82.46125 88.9875 82.46125Q90.00313 82.46125 90.65938 81.820625Q91.31563 81.164375 91.31563 80.164375Q91.31563 79.14875 90.62813 78.4925Q89.95625 77.820625 88.94063 77.820625Q87.95625 77.820625 87.3 78.476875Q86.64375 79.133125 86.64375 80.1175Z" fill-rule="nonzero"/><path fill="#000000" d="M72.22188 52.83375Q72.22188 50.8025 72.62813 49.568127Q73.05 48.33375 73.87813 47.661877Q74.70625 46.99 75.95625 46.99Q76.87813 46.99 77.56563 47.365Q78.26875 47.724377 78.72188 48.4275Q79.175 49.130627 79.425 50.130627Q79.69063 51.130627 79.69063 52.83375Q79.69063 54.849377 79.26875 56.099377Q78.8625 57.33375 78.03438 58.02125Q77.20625 58.693127 75.95625 58.693127Q74.3 58.693127 73.34688 57.49Q72.22188 56.068127 72.22188 52.83375ZM73.65938 52.83375Q73.65938 55.661877 74.31563 56.599377Q74.9875 57.52125 75.95625 57.52125Q76.925 57.52125 77.58125 56.58375Q78.2375 55.64625 78.2375 52.83375Q78.2375 50.005627 77.58125 49.08375Q76.925 48.14625 75.94063 48.14625Q74.97188 48.14625 74.39375 48.974377Q73.65938 50.02125 73.65938 52.83375ZM82.00313 58.49L82.00313 56.880627L83.6125 56.880627L83.6125 58.49L82.00313 58.49ZM85.425 55.83375L86.78438 55.70875Q86.95625 56.661877 87.44063 57.099377Q87.925 57.52125 88.675 57.52125Q89.33125 57.52125 89.81563 57.224377Q90.3 56.9275 90.6125 56.443127Q90.925 55.943127 91.12813 55.099377Q91.34688 54.255627 91.34688 53.380627Q91.34688 53.286877 91.34688 53.099377Q90.925 53.77125 90.19063 54.193127Q89.45625 54.599377 88.6125 54.599377Q87.19063 54.599377 86.20625 53.568127Q85.22188 52.536877 85.22188 50.849377Q85.22188 49.115 86.2375 48.0525Q87.26875 46.99 88.81563 46.99Q89.94063 46.99 90.8625 47.599377Q91.78438 48.193127 92.26875 49.3025Q92.75313 50.411877 92.75313 52.52125Q92.75313 54.724377 92.26875 56.02125Q91.8 57.318127 90.84688 58.005627Q89.90938 58.693127 88.64375 58.693127Q87.3 58.693127 86.44063 57.943127Q85.59688 57.193127 85.425 55.83375ZM91.19063 50.786877Q91.19063 49.568127 90.53438 48.865Q89.89375 48.14625 88.9875 48.14625Q88.05 48.14625 87.34688 48.911877Q86.65938 49.6775 86.65938 50.89625Q86.65938 51.99 87.31563 52.6775Q87.9875 53.365 88.95625 53.365Q89.925 53.365 90.55 52.6775Q91.19063 51.99 91.19063 50.786877Z" fill-rule="nonzero"/><path fill="#000000" d="M77.51875 33.55L76.1125 33.55L76.1125 24.58125Q75.59688 25.065624 74.76875 25.55Q73.95625 26.034374 73.3 26.284374L73.3 24.925Q74.47188 24.3625 75.34688 23.58125Q76.2375 22.784374 76.6125 22.05L77.51875 22.05L77.51875 33.55ZM82.00313 33.55L82.00313 31.940624L83.6125 31.940624L83.6125 33.55L82.00313 33.55ZM85.22188 27.89375Q85.22188 25.8625 85.62813 24.628124Q86.05 23.39375 86.87813 22.721874Q87.70625 22.05 88.95625 22.05Q89.87813 22.05 90.56563 22.425Q91.26875 22.784374 91.72188 23.4875Q92.175 24.190624 92.425 25.190624Q92.69063 26.190624 92.69063 27.89375Q92.69063 29.909374 92.26875 31.159374Q91.8625 32.39375 91.03438 33.08125Q90.20625 33.753124 88.95625 33.753124Q87.3 33.753124 86.34688 32.55Q85.22188 31.128124 85.22188 27.89375ZM86.65938 27.89375Q86.65938 30.721874 87.31563 31.659374Q87.9875 32.58125 88.95625 32.58125Q89.925 32.58125 90.58125 31.64375Q91.2375 30.70625 91.2375 27.89375Q91.2375 25.065624 90.58125 24.14375Q89.925 23.20625 88.94063 23.20625Q87.97188 23.20625 87.39375 24.034374Q86.65938 25.08125 86.65938 27.89375Z" fill-rule="nonzero"/><path fill="#000000" d="M86.72188 294.79376Q86.72188 292.7625 87.12813 291.52814Q87.55 290.29376 88.37813 289.6219Q89.20625 288.95 90.45625 288.95Q91.37813 288.95 92.06563 289.325Q92.76875 289.6844 93.22188 290.3875Q93.675 291.09064 93.925 292.09064Q94.19063 293.09064 94.19063 294.79376Q94.19063 296.8094 93.76875 298.0594Q93.3625 299.29376 92.53438 299.98126Q91.70625 300.65314 90.45625 300.65314Q88.8 300.65314 87.84688 299.45Q86.72188 298.02814 86.72188 294.79376ZM88.15938 294.79376Q88.15938 297.6219 88.81563 298.5594Q89.4875 299.48126 90.45625 299.48126Q91.425 299.48126 92.08125 298.54376Q92.7375 297.60626 92.7375 294.79376Q92.7375 291.96564 92.08125 291.04376Q91.425 290.10626 90.44063 290.10626Q89.47188 290.10626 88.89375 290.9344Q88.15938 291.98126 88.15938 294.79376ZM96.50313 293.7469L96.50313 292.15314L98.09688 292.15314L98.09688 293.7469L96.50313 293.7469ZM96.50313 300.45L96.50313 298.84064L98.09688 298.84064L98.09688 300.45L96.50313 300.45ZM99.72188 294.79376Q99.72188 292.7625 100.12813 291.52814Q100.55 290.29376 101.37813 289.6219Q102.20625 288.95 103.45625 288.95Q104.37813 288.95 105.06563 289.325Q105.76875 289.6844 106.22188 290.3875Q106.675 291.09064 106.925 292.09064Q107.19063 293.09064 107.19063 294.79376Q107.19063 296.8094 106.76875 298.0594Q106.3625 299.29376 105.53438 299.98126Q104.70625 300.65314 103.45625 300.65314Q101.8 300.65314 100.84688 299.45Q99.72188 298.02814 99.72188 294.79376ZM101.15938 294.79376Q101.15938 297.6219 101.81563 298.5594Q102.4875 299.48126 103.45625 299.48126Q104.425 299.48126 105.08125 298.54376Q105.7375 297.60626 105.7375 294.79376Q105.7375 291.96564 105.08125 291.04376Q104.425 290.10626 103.44063 290.10626Q102.47188 290.10626 101.89375 290.9344Q101.15938 291.98126 101.15938 294.79376ZM108.72188 294.79376Q108.72188 292.7625 109.12813 291.52814Q109.55 290.29376 110.37813 289.6219Q111.20625 288.95 112.45625 288.95Q113.37813 288.95 114.06563 289.325Q114.76875 289.6844 115.22188 290.3875Q115.675 291.09064 115.925 292.09064Q116.19063 293.09064 116.19063 294.79376Q116.19063 296.8094 115.76875 298.0594Q115.3625 299.29376 114.53438 299.98126Q113.70625 300.65314 112.45625 300.65314Q110.8 300.65314 109.84688 299.45Q108.72188 298.02814 108.72188 294.79376ZM110.15938 294.79376Q110.15938 297.6219 110.81563 298.5594Q111.4875 299.48126 112.45625 299.48126Q113.425 299.48126 114.08125 298.54376Q114.7375 297.60626 114.7375 294.79376Q114.7375 291.96564 114.08125 291.04376Q113.425 290.10626 112.44063 290.10626Q111.47188 290.10626 110.89375 290.9344Q110.15938 291.98126 110.15938 294.79376Z" fill-rule="nonzero"/><path fill="#000000" d="M203.99933 300.45L202.59308 300.45L202.59308 291.48126Q202.07745 291.96564 201.24933 292.45Q200.43683 292.9344 199.78058 293.1844L199.78058 291.825Q200.95245 291.2625 201.82745 290.48126Q202.71808 289.6844 203.09308 288.95L203.99933 288.95L203.99933 300.45ZM215.09308 299.09064L215.09308 300.45L207.51495 300.45Q207.49933 299.9344 207.68683 299.46564Q207.96808 298.7 208.6087 297.95Q209.24933 297.2 210.45245 296.21564Q212.31183 294.6844 212.96808 293.79376Q213.62433 292.8875 213.62433 292.09064Q213.62433 291.2625 213.03058 290.6844Q212.43683 290.10626 211.46808 290.10626Q210.45245 290.10626 209.84308 290.71564Q209.2337 291.325 209.2337 292.40314L207.78058 292.2625Q207.93683 290.6375 208.90558 289.79376Q209.87433 288.95 211.49933 288.95Q213.15558 288.95 214.1087 289.8719Q215.07745 290.77814 215.07745 292.1219Q215.07745 292.8094 214.7962 293.48126Q214.51495 294.1375 213.8587 294.8719Q213.20245 295.60626 211.68683 296.8875Q210.4212 297.95 210.06183 298.34064Q209.70245 298.71564 209.46808 299.09064L215.09308 299.09064ZM217.4837 293.7469L217.4837 292.15314L219.07745 292.15314L219.07745 293.7469L217.4837 293.7469ZM217.4837 300.45L217.4837 298.84064L219.07745 298.84064L219.07745 300.45L217.4837 300.45ZM220.70245 294.79376Q220.70245 292.7625 221.1087 291.52814Q221.53058 290.29376 222.3587 289.6219Q223.18683 288.95 224.43683 288.95Q225.3587 288.95 226.0462 289.325Q226.74933 289.6844 227.20245 290.3875Q227.65558 291.09064 227.90558 292.09064Q228.1712 293.09064 228.1712 294.79376Q228.1712 296.8094 227.74933 298.0594Q227.34308 299.29376 226.51495 299.98126Q225.68683 300.65314 224.43683 300.65314Q222.78058 300.65314 221.82745 299.45Q220.70245 298.02814 220.70245 294.79376ZM222.13995 294.79376Q222.13995 297.6219 222.7962 298.5594Q223.46808 299.48126 224.43683 299.48126Q225.40558 299.48126 226.06183 298.54376Q226.71808 297.60626 226.71808 294.79376Q226.71808 291.96564 226.06183 291.04376Q225.40558 290.10626 224.4212 290.10626Q223.45245 290.10626 222.87433 290.9344Q222.13995 291.98126 222.13995 294.79376ZM229.70245 294.79376Q229.70245 292.7625 230.1087 291.52814Q230.53058 290.29376 231.3587 289.6219Q232.18683 288.95 233.43683 288.95Q234.3587 288.95 235.0462 289.325Q235.74933 289.6844 236.20245 290.3875Q236.65558 291.09064 236.90558 292.09064Q237.1712 293.09064 237.1712 294.79376Q237.1712 296.8094 236.74933 298.0594Q236.34308 299.29376 235.51495 299.98126Q234.68683 300.65314 233.43683 300.65314Q231.78058 300.65314 230.82745 299.45Q229.70245 298.02814 229.70245 294.79376ZM231.13995 294.79376Q231.13995 297.6219 231.7962 298.5594Q232.46808 299.48126 233.43683 299.48126Q234.40558 299.48126 235.06183 298.54376Q235.71808 297.60626 235.71808 294.79376Q235.71808 291.96564 235.06183 291.04376Q234.40558 290.10626 233.4212 290.10626Q232.45245 290.10626 231.87433 290.9344Q231.13995 291.98126 231.13995 294.79376Z" fill-rule="nonzero"/><path fill="#000000" d="M322.57367 299.09064L322.57367 300.45L314.99554 300.45Q314.97992 299.9344 315.16742 299.46564Q315.44867 298.7 316.0893 297.95Q316.72992 297.2 317.93304 296.21564Q319.79242 294.6844 320.44867 293.79376Q321.10492 292.8875 321.10492 292.09064Q321.10492 291.2625 320.51117 290.6844Q319.91742 290.10626 318.94867 290.10626Q317.93304 290.10626 317.32367 290.71564Q316.7143 291.325 316.7143 292.40314L315.26117 292.2625Q315.41742 290.6375 316.38617 289.79376Q317.35492 288.95 318.97992 288.95Q320.63617 288.95 321.5893 289.8719Q322.55804 290.77814 322.55804 292.1219Q322.55804 292.8094 322.2768 293.48126Q321.99554 294.1375 321.3393 294.8719Q320.68304 295.60626 319.16742 296.8875Q317.9018 297.95 317.54242 298.34064Q317.18304 298.71564 316.94867 299.09064L322.57367 299.09064ZM328.68304 300.45L328.68304 297.7L323.7143 297.7L323.7143 296.41876L328.94867 288.9969L330.0893 288.9969L330.0893 296.41876L331.63617 296.41876L331.63617 297.7L330.0893 297.7L330.0893 300.45L328.68304 300.45ZM328.68304 296.41876L328.68304 291.2469L325.10492 296.41876L328.68304 296.41876ZM333.9643 293.7469L333.9643 292.15314L335.55804 292.15314L335.55804 293.7469L333.9643 293.7469ZM333.9643 300.45L333.9643 298.84064L335.55804 298.84064L335.55804 300.45L333.9643 300.45ZM337.18304 294.79376Q337.18304 292.7625 337.5893 291.52814Q338.01117 290.29376 338.8393 289.6219Q339.66742 288.95 340.91742 288.95Q341.8393 288.95 342.5268 289.325Q343.22992 289.6844 343.68304 290.3875Q344.13617 291.09064 344.38617 292.09064Q344.6518 293.09064 344.6518 294.79376Q344.6518 296.8094 344.22992 298.0594Q343.82367 299.29376 342.99554 299.98126Q342.16742 300.65314 340.91742 300.65314Q339.26117 300.65314 338.30804 299.45Q337.18304 298.02814 337.18304 294.79376ZM338.62054 294.79376Q338.62054 297.6219 339.2768 298.5594Q339.94867 299.48126 340.91742 299.48126Q341.88617 299.48126 342.54242 298.54376Q343.19867 297.60626 343.19867 294.79376Q343.19867 291.96564 342.54242 291.04376Q341.88617 290.10626 340.9018 290.10626Q339.93304 290.10626 339.35492 290.9344Q338.62054 291.98126 338.62054 294.79376ZM346.18304 294.79376Q346.18304 292.7625 346.5893 291.52814Q347.01117 290.29376 347.8393 289.6219Q348.66742 288.95 349.91742 288.95Q350.8393 288.95 351.5268 289.325Q352.22992 289.6844 352.68304 290.3875Q353.13617 291.09064 353.38617 292.09064Q353.6518 293.09064 353.6518 294.79376Q353.6518 296.8094 353.22992 298.0594Q352.82367 299.29376 351.99554 299.98126Q351.16742 300.65314 349.91742 300.65314Q348.26117 300.65314 347.30804 299.45Q346.18304 298.02814 346.18304 294.79376ZM347.62054 294.79376Q347.62054 297.6219 348.2768 298.5594Q348.94867 299.48126 349.91742 299.48126Q350.88617 299.48126 351.54242 298.54376Q352.19867 297.60626 352.19867 294.79376Q352.19867 291.96564 351.54242 291.04376Q350.88617 290.10626 349.9018 290.10626Q348.93304 290.10626 348.35492 290.9344Q347.62054 291.98126 347.62054 294.79376Z" fill-rule="nonzero"/><path fill="#000000" d="M431.66364 297.41876L433.0699 297.23126Q433.3199 298.4344 433.898 298.96564Q434.47614 299.48126 435.3199 299.48126Q436.30426 299.48126 436.99176 298.79376Q437.67926 298.10626 437.67926 297.09064Q437.67926 296.1219 437.03864 295.4969Q436.41364 294.8719 435.42926 294.8719Q435.03864 294.8719 434.4449 295.02814L434.60114 293.79376Q434.74176 293.8094 434.8199 293.8094Q435.72614 293.8094 436.4449 293.34064Q437.16364 292.8719 437.16364 291.8875Q437.16364 291.1219 436.6324 290.6219Q436.11676 290.10626 435.28864 290.10626Q434.4605 290.10626 433.91364 290.6219Q433.36676 291.1375 433.2105 292.16876L431.80426 291.91876Q432.0699 290.4969 432.97614 289.73126Q433.898 288.95 435.2574 288.95Q436.1949 288.95 436.97614 289.35626Q437.773 289.7469 438.17926 290.45Q438.60114 291.1375 438.60114 291.91876Q438.60114 292.66876 438.1949 293.27814Q437.80426 293.8875 437.023 294.2469Q438.03864 294.48126 438.60114 295.21564Q439.16364 295.95 439.16364 297.0594Q439.16364 298.5594 438.0699 299.60626Q436.97614 300.65314 435.30426 300.65314Q433.80426 300.65314 432.80426 299.7625Q431.80426 298.85626 431.66364 297.41876ZM447.9605 291.79376L446.55426 291.90314Q446.36676 291.075 446.023 290.7Q445.4605 290.10626 444.61676 290.10626Q443.9449 290.10626 443.4449 290.48126Q442.773 290.96564 442.3824 291.90314Q442.0074 292.825 441.99176 294.54376Q442.5074 293.7625 443.24176 293.3875Q443.97614 293.0125 444.773 293.0125Q446.17926 293.0125 447.16364 294.0594Q448.16364 295.09064 448.16364 296.73126Q448.16364 297.8094 447.6949 298.73126Q447.22614 299.65314 446.41364 300.15314Q445.60114 300.65314 444.5699 300.65314Q442.8199 300.65314 441.7105 299.35626Q440.60114 298.0594 440.60114 295.09064Q440.60114 291.7625 441.8199 290.2625Q442.898 288.95 444.7105 288.95Q446.05426 288.95 446.91364 289.71564Q447.78864 290.46564 447.9605 291.79376ZM442.2105 296.73126Q442.2105 297.46564 442.523 298.1375Q442.8355 298.79376 443.3824 299.1375Q443.9449 299.48126 444.55426 299.48126Q445.4449 299.48126 446.0855 298.7625Q446.72614 298.04376 446.72614 296.8094Q446.72614 295.6219 446.0855 294.95Q445.4605 294.2625 444.49176 294.2625Q443.53864 294.2625 442.86676 294.95Q442.2105 295.6219 442.2105 296.73126ZM450.4449 293.7469L450.4449 292.15314L452.03864 292.15314L452.03864 293.7469L450.4449 293.7469ZM450.4449 300.45L450.4449 298.84064L452.03864 298.84064L452.03864 300.45L450.4449 300.45ZM453.66364 294.79376Q453.66364 292.7625 454.0699 291.52814Q454.49176 290.29376 455.3199 289.6219Q456.148 288.95 457.398 288.95Q458.3199 288.95 459.0074 289.325Q459.7105 289.6844 460.16364 290.3875Q460.61676 291.09064 460.86676 292.09064Q461.1324 293.09064 461.1324 294.79376Q461.1324 296.8094 460.7105 298.0594Q460.30426 299.29376 459.47614 299.98126Q458.648 300.65314 457.398 300.65314Q455.74176 300.65314 454.78864 299.45Q453.66364 298.02814 453.66364 294.79376ZM455.10114 294.79376Q455.10114 297.6219 455.7574 298.5594Q456.42926 299.48126 457.398 299.48126Q458.36676 299.48126 459.023 298.54376Q459.67926 297.60626 459.67926 294.79376Q459.67926 291.96564 459.023 291.04376Q458.36676 290.10626 457.3824 290.10626Q456.41364 290.10626 455.8355 290.9344Q455.10114 291.98126 455.10114 294.79376ZM462.66364 294.79376Q462.66364 292.7625 463.0699 291.52814Q463.49176 290.29376 464.3199 289.6219Q465.148 288.95 466.398 288.95Q467.3199 288.95 468.0074 289.325Q468.7105 289.6844 469.16364 290.3875Q469.61676 291.09064 469.86676 292.09064Q470.1324 293.09064 470.1324 294.79376Q470.1324 296.8094 469.7105 298.0594Q469.30426 299.29376 468.47614 299.98126Q467.648 300.65314 466.398 300.65314Q464.74176 300.65314 463.78864 299.45Q462.66364 298.02814 462.66364 294.79376ZM464.10114 294.79376Q464.10114 297.6219 464.7574 298.5594Q465.42926 299.48126 466.398 299.48126Q467.36676 299.48126 468.023 298.54376Q468.67926 297.60626 468.67926 294.79376Q468.67926 291.96564 468.023 291.04376Q467.36676 290.10626 466.3824 290.10626Q465.41364 290.10626 464.8355 290.9344Q464.10114 291.98126 464.10114 294.79376Z" fill-rule="nonzero"/><path fill="#000000" d="M552.6442 300.45L552.6442 297.7L547.6755 297.7L547.6755 296.41876L552.90985 288.9969L554.0505 288.9969L554.0505 296.41876L555.59735 296.41876L555.59735 297.7L554.0505 297.7L554.0505 300.45L552.6442 300.45ZM552.6442 296.41876L552.6442 291.2469L549.0661 296.41876L552.6442 296.41876ZM559.3005 294.23126Q558.4255 293.91876 558.0036 293.325Q557.5817 292.73126 557.5817 291.90314Q557.5817 290.65314 558.47235 289.8094Q559.3786 288.95 560.8786 288.95Q562.3786 288.95 563.28485 289.825Q564.2067 290.6844 564.2067 291.9344Q564.2067 292.73126 563.78485 293.325Q563.363 293.91876 562.5192 294.23126Q563.5661 294.575 564.113 295.34064Q564.6755 296.10626 564.6755 297.16876Q564.6755 298.6375 563.6286 299.65314Q562.59735 300.65314 560.8942 300.65314Q559.2067 300.65314 558.15985 299.65314Q557.1286 298.6375 557.1286 297.1375Q557.1286 296.0125 557.6911 295.2625Q558.2536 294.5125 559.3005 294.23126ZM559.0192 291.85626Q559.0192 292.66876 559.53485 293.1844Q560.0661 293.7 560.90985 293.7Q561.72235 293.7 562.238 293.1844Q562.7536 292.66876 562.7536 291.9344Q562.7536 291.15314 562.22235 290.6375Q561.6911 290.10626 560.8942 290.10626Q560.0817 290.10626 559.5505 290.6219Q559.0192 291.1375 559.0192 291.85626ZM558.5661 297.1375Q558.5661 297.7469 558.84735 298.3094Q559.1442 298.8719 559.7067 299.1844Q560.2692 299.48126 560.90985 299.48126Q561.9255 299.48126 562.5817 298.84064Q563.238 298.1844 563.238 297.1844Q563.238 296.16876 562.5505 295.5125Q561.8786 294.84064 560.863 294.84064Q559.8786 294.84064 559.22235 295.4969Q558.5661 296.15314 558.5661 297.1375ZM566.9255 293.7469L566.9255 292.15314L568.5192 292.15314L568.5192 293.7469L566.9255 293.7469ZM566.9255 300.45L566.9255 298.84064L568.5192 298.84064L568.5192 300.45L566.9255 300.45ZM570.1442 294.79376Q570.1442 292.7625 570.5505 291.52814Q570.97235 290.29376 571.8005 289.6219Q572.6286 288.95 573.8786 288.95Q574.8005 288.95 575.488 289.325Q576.1911 289.6844 576.6442 290.3875Q577.09735 291.09064 577.34735 292.09064Q577.613 293.09064 577.613 294.79376Q577.613 296.8094 577.1911 298.0594Q576.78485 299.29376 575.9567 299.98126Q575.1286 300.65314 573.8786 300.65314Q572.22235 300.65314 571.2692 299.45Q570.1442 298.02814 570.1442 294.79376ZM571.5817 294.79376Q571.5817 297.6219 572.238 298.5594Q572.90985 299.48126 573.8786 299.48126Q574.84735 299.48126 575.5036 298.54376Q576.15985 297.60626 576.15985 294.79376Q576.15985 291.96564 575.5036 291.04376Q574.84735 290.10626 573.863 290.10626Q572.8942 290.10626 572.3161 290.9344Q571.5817 291.98126 571.5817 294.79376ZM579.1442 294.79376Q579.1442 292.7625 579.5505 291.52814Q579.97235 290.29376 580.8005 289.6219Q581.6286 288.95 582.8786 288.95Q583.8005 288.95 584.488 289.325Q585.1911 289.6844 585.6442 290.3875Q586.09735 291.09064 586.34735 292.09064Q586.613 293.09064 586.613 294.79376Q586.613 296.8094 586.1911 298.0594Q585.78485 299.29376 584.9567 299.98126Q584.1286 300.65314 582.8786 300.65314Q581.22235 300.65314 580.2692 299.45Q579.1442 298.02814 579.1442 294.79376ZM580.5817 294.79376Q580.5817 297.6219 581.238 298.5594Q581.90985 299.48126 582.8786 299.48126Q583.84735 299.48126 584.5036 298.54376Q585.15985 297.60626 585.15985 294.79376Q585.15985 291.96564 584.5036 291.04376Q583.84735 290.10626 582.863 290.10626Q581.8942 290.10626 581.3161 290.9344Q580.5817 291.98126 580.5817 294.79376Z" fill-rule="nonzero"/></svg>